solid STL generated by MeshLab
  facet normal 0.000000e+000 -1.000000e+000 0.000000e+000
    outer loop
      vertex  5.624151e+000 2.621256e+001 -5.639552e+000
      vertex  2.562415e+001 2.621256e+001 1.436045e+001
      vertex  5.624151e+000 2.621256e+001 1.436045e+001
    endloop
  endfacet
  facet normal 0.000000e+000 -1.000000e+000 0.000000e+000
    outer loop
      vertex  5.624151e+000 2.621256e+001 -5.639552e+000
      vertex  2.562415e+001 2.621256e+001 -5.639552e+000
      vertex  2.562415e+001 2.621256e+001 1.436045e+001
    endloop
  endfacet
  facet normal 1.000000e+000 0.000000e+000 0.000000e+000
    outer loop
      vertex  2.562415e+001 2.621256e+001 -5.639552e+000
      vertex  2.562415e+001 4.621255e+001 1.436045e+001
      vertex  2.562415e+001 2.621256e+001 1.436045e+001
    endloop
  endfacet
  facet normal 1.000000e+000 0.000000e+000 0.000000e+000
    outer loop
      vertex  2.562415e+001 2.621256e+001 -5.639552e+000
      vertex  2.562415e+001 4.621255e+001 -5.639552e+000
      vertex  2.562415e+001 4.621255e+001 1.436045e+001
    endloop
  endfacet
  facet normal 0.000000e+000 1.000000e+000 -0.000000e+000
    outer loop
      vertex  2.562415e+001 4.621255e+001 -5.639552e+000
      vertex  5.624151e+000 4.621255e+001 1.436045e+001
      vertex  2.562415e+001 4.621255e+001 1.436045e+001
    endloop
  endfacet
  facet normal 0.000000e+000 1.000000e+000 0.000000e+000
    outer loop
      vertex  2.562415e+001 4.621255e+001 -5.639552e+000
      vertex  5.624151e+000 4.621255e+001 -5.639552e+000
      vertex  5.624151e+000 4.621255e+001 1.436045e+001
    endloop
  endfacet
  facet normal -1.000000e+000 0.000000e+000 0.000000e+000
    outer loop
      vertex  5.624151e+000 4.621255e+001 -5.639552e+000
      vertex  5.624151e+000 2.621256e+001 1.436045e+001
      vertex  5.624151e+000 4.621255e+001 1.436045e+001
    endloop
  endfacet
  facet normal -1.000000e+000 0.000000e+000 0.000000e+000
    outer loop
      vertex  5.624151e+000 4.621255e+001 -5.639552e+000
      vertex  5.624151e+000 2.621256e+001 -5.639552e+000
      vertex  5.624151e+000 2.621256e+001 1.436045e+001
    endloop
  endfacet
  facet normal 0.000000e+000 0.000000e+000 1.000000e+000
    outer loop
      vertex  5.624151e+000 2.621256e+001 1.436045e+001
      vertex  2.562415e+001 4.621255e+001 1.436045e+001
      vertex  5.624151e+000 4.621255e+001 1.436045e+001
    endloop
  endfacet
  facet normal 0.000000e+000 0.000000e+000 1.000000e+000
    outer loop
      vertex  5.624151e+000 2.621256e+001 1.436045e+001
      vertex  2.562415e+001 2.621256e+001 1.436045e+001
      vertex  2.562415e+001 4.621255e+001 1.436045e+001
    endloop
  endfacet
  facet normal 0.000000e+000 0.000000e+000 -1.000000e+000
    outer loop
      vertex  5.624151e+000 4.621255e+001 -5.639552e+000
      vertex  2.562415e+001 2.621256e+001 -5.639552e+000
      vertex  5.624151e+000 2.621256e+001 -5.639552e+000
    endloop
  endfacet
  facet normal 0.000000e+000 0.000000e+000 -1.000000e+000
    outer loop
      vertex  5.624151e+000 4.621255e+001 -5.639552e+000
      vertex  2.562415e+001 4.621255e+001 -5.639552e+000
      vertex  2.562415e+001 2.621256e+001 -5.639552e+000
    endloop
  endfacet
  facet normal 0.000000e+000 -1.000000e+000 0.000000e+000
    outer loop
      vertex  1.451146e+001 -3.822185e+001 -2.671731e+000
      vertex  3.451146e+001 -3.822185e+001 1.732827e+001
      vertex  1.451146e+001 -3.822185e+001 1.732827e+001
    endloop
  endfacet
  facet normal 0.000000e+000 -1.000000e+000 0.000000e+000
    outer loop
      vertex  1.451146e+001 -3.822185e+001 -2.671731e+000
      vertex  3.451146e+001 -3.822185e+001 -2.671731e+000
      vertex  3.451146e+001 -3.822185e+001 1.732827e+001
    endloop
  endfacet
  facet normal 1.000000e+000 0.000000e+000 0.000000e+000
    outer loop
      vertex  3.451146e+001 -3.822185e+001 -2.671731e+000
      vertex  3.451146e+001 -1.822185e+001 1.732827e+001
      vertex  3.451146e+001 -3.822185e+001 1.732827e+001
    endloop
  endfacet
  facet normal 1.000000e+000 0.000000e+000 0.000000e+000
    outer loop
      vertex  3.451146e+001 -3.822185e+001 -2.671731e+000
      vertex  3.451146e+001 -1.822185e+001 -2.671731e+000
      vertex  3.451146e+001 -1.822185e+001 1.732827e+001
    endloop
  endfacet
  facet normal 0.000000e+000 1.000000e+000 -0.000000e+000
    outer loop
      vertex  3.451146e+001 -1.822185e+001 -2.671731e+000
      vertex  1.451146e+001 -1.822185e+001 1.732827e+001
      vertex  3.451146e+001 -1.822185e+001 1.732827e+001
    endloop
  endfacet
  facet normal 0.000000e+000 1.000000e+000 0.000000e+000
    outer loop
      vertex  3.451146e+001 -1.822185e+001 -2.671731e+000
      vertex  1.451146e+001 -1.822185e+001 -2.671731e+000
      vertex  1.451146e+001 -1.822185e+001 1.732827e+001
    endloop
  endfacet
  facet normal -1.000000e+000 0.000000e+000 0.000000e+000
    outer loop
      vertex  1.451146e+001 -1.822185e+001 -2.671731e+000
      vertex  1.451146e+001 -3.822185e+001 1.732827e+001
      vertex  1.451146e+001 -1.822185e+001 1.732827e+001
    endloop
  endfacet
  facet normal -1.000000e+000 0.000000e+000 0.000000e+000
    outer loop
      vertex  1.451146e+001 -1.822185e+001 -2.671731e+000
      vertex  1.451146e+001 -3.822185e+001 -2.671731e+000
      vertex  1.451146e+001 -3.822185e+001 1.732827e+001
    endloop
  endfacet
  facet normal 0.000000e+000 0.000000e+000 1.000000e+000
    outer loop
      vertex  1.451146e+001 -3.822185e+001 1.732827e+001
      vertex  3.451146e+001 -1.822185e+001 1.732827e+001
      vertex  1.451146e+001 -1.822185e+001 1.732827e+001
    endloop
  endfacet
  facet normal 0.000000e+000 0.000000e+000 1.000000e+000
    outer loop
      vertex  1.451146e+001 -3.822185e+001 1.732827e+001
      vertex  3.451146e+001 -3.822185e+001 1.732827e+001
      vertex  3.451146e+001 -1.822185e+001 1.732827e+001
    endloop
  endfacet
  facet normal 0.000000e+000 0.000000e+000 -1.000000e+000
    outer loop
      vertex  1.451146e+001 -1.822185e+001 -2.671731e+000
      vertex  3.451146e+001 -3.822185e+001 -2.671731e+000
      vertex  1.451146e+001 -3.822185e+001 -2.671731e+000
    endloop
  endfacet
  facet normal 0.000000e+000 0.000000e+000 -1.000000e+000
    outer loop
      vertex  1.451146e+001 -1.822185e+001 -2.671731e+000
      vertex  3.451146e+001 -1.822185e+001 -2.671731e+000
      vertex  3.451146e+001 -3.822185e+001 -2.671731e+000
    endloop
  endfacet
  facet normal 0.000000e+000 -1.000000e+000 0.000000e+000
    outer loop
      vertex  -1.000000e+001 -5.106008e+001 -2.496532e+001
      vertex  1.000000e+001 -5.106008e+001 -4.965318e+000
      vertex  -1.000000e+001 -5.106008e+001 -4.965318e+000
    endloop
  endfacet
  facet normal 0.000000e+000 -1.000000e+000 0.000000e+000
    outer loop
      vertex  -1.000000e+001 -5.106008e+001 -2.496532e+001
      vertex  1.000000e+001 -5.106008e+001 -2.496532e+001
      vertex  1.000000e+001 -5.106008e+001 -4.965318e+000
    endloop
  endfacet
  facet normal 1.000000e+000 0.000000e+000 0.000000e+000
    outer loop
      vertex  1.000000e+001 -5.106008e+001 -2.496532e+001
      vertex  1.000000e+001 -3.106008e+001 -4.965318e+000
      vertex  1.000000e+001 -5.106008e+001 -4.965318e+000
    endloop
  endfacet
  facet normal 1.000000e+000 0.000000e+000 0.000000e+000
    outer loop
      vertex  1.000000e+001 -5.106008e+001 -2.496532e+001
      vertex  1.000000e+001 -3.106008e+001 -2.496532e+001
      vertex  1.000000e+001 -3.106008e+001 -4.965318e+000
    endloop
  endfacet
  facet normal 0.000000e+000 1.000000e+000 -0.000000e+000
    outer loop
      vertex  1.000000e+001 -3.106008e+001 -2.496532e+001
      vertex  -1.000000e+001 -3.106008e+001 -4.965318e+000
      vertex  1.000000e+001 -3.106008e+001 -4.965318e+000
    endloop
  endfacet
  facet normal 0.000000e+000 1.000000e+000 0.000000e+000
    outer loop
      vertex  1.000000e+001 -3.106008e+001 -2.496532e+001
      vertex  -1.000000e+001 -3.106008e+001 -2.496532e+001
      vertex  -1.000000e+001 -3.106008e+001 -4.965318e+000
    endloop
  endfacet
  facet normal -1.000000e+000 0.000000e+000 0.000000e+000
    outer loop
      vertex  -1.000000e+001 -3.106008e+001 -2.496532e+001
      vertex  -1.000000e+001 -5.106008e+001 -4.965318e+000
      vertex  -1.000000e+001 -3.106008e+001 -4.965318e+000
    endloop
  endfacet
  facet normal -1.000000e+000 0.000000e+000 0.000000e+000
    outer loop
      vertex  -1.000000e+001 -3.106008e+001 -2.496532e+001
      vertex  -1.000000e+001 -5.106008e+001 -2.496532e+001
      vertex  -1.000000e+001 -5.106008e+001 -4.965318e+000
    endloop
  endfacet
  facet normal 0.000000e+000 0.000000e+000 1.000000e+000
    outer loop
      vertex  -1.000000e+001 -5.106008e+001 -4.965318e+000
      vertex  1.000000e+001 -3.106008e+001 -4.965318e+000
      vertex  -1.000000e+001 -3.106008e+001 -4.965318e+000
    endloop
  endfacet
  facet normal 0.000000e+000 0.000000e+000 1.000000e+000
    outer loop
      vertex  -1.000000e+001 -5.106008e+001 -4.965318e+000
      vertex  1.000000e+001 -5.106008e+001 -4.965318e+000
      vertex  1.000000e+001 -3.106008e+001 -4.965318e+000
    endloop
  endfacet
  facet normal 0.000000e+000 0.000000e+000 -1.000000e+000
    outer loop
      vertex  -1.000000e+001 -3.106008e+001 -2.496532e+001
      vertex  1.000000e+001 -5.106008e+001 -2.496532e+001
      vertex  -1.000000e+001 -5.106008e+001 -2.496532e+001
    endloop
  endfacet
  facet normal 0.000000e+000 0.000000e+000 -1.000000e+000
    outer loop
      vertex  -1.000000e+001 -3.106008e+001 -2.496532e+001
      vertex  1.000000e+001 -3.106008e+001 -2.496532e+001
      vertex  1.000000e+001 -5.106008e+001 -2.496532e+001
    endloop
  endfacet
  facet normal 0.000000e+000 -1.000000e+000 0.000000e+000
    outer loop
      vertex  2.329107e+001 -1.000000e+001 -1.000000e+001
      vertex  4.329107e+001 -1.000000e+001 1.000000e+001
      vertex  2.329107e+001 -1.000000e+001 1.000000e+001
    endloop
  endfacet
  facet normal 0.000000e+000 -1.000000e+000 0.000000e+000
    outer loop
      vertex  2.329107e+001 -1.000000e+001 -1.000000e+001
      vertex  4.329107e+001 -1.000000e+001 -1.000000e+001
      vertex  4.329107e+001 -1.000000e+001 1.000000e+001
    endloop
  endfacet
  facet normal 1.000000e+000 0.000000e+000 0.000000e+000
    outer loop
      vertex  4.329107e+001 -1.000000e+001 -1.000000e+001
      vertex  4.329107e+001 1.000000e+001 1.000000e+001
      vertex  4.329107e+001 -1.000000e+001 1.000000e+001
    endloop
  endfacet
  facet normal 1.000000e+000 0.000000e+000 0.000000e+000
    outer loop
      vertex  4.329107e+001 -1.000000e+001 -1.000000e+001
      vertex  4.329107e+001 1.000000e+001 -1.000000e+001
      vertex  4.329107e+001 1.000000e+001 1.000000e+001
    endloop
  endfacet
  facet normal 0.000000e+000 1.000000e+000 -0.000000e+000
    outer loop
      vertex  4.329107e+001 1.000000e+001 -1.000000e+001
      vertex  2.329107e+001 1.000000e+001 1.000000e+001
      vertex  4.329107e+001 1.000000e+001 1.000000e+001
    endloop
  endfacet
  facet normal 0.000000e+000 1.000000e+000 0.000000e+000
    outer loop
      vertex  4.329107e+001 1.000000e+001 -1.000000e+001
      vertex  2.329107e+001 1.000000e+001 -1.000000e+001
      vertex  2.329107e+001 1.000000e+001 1.000000e+001
    endloop
  endfacet
  facet normal -1.000000e+000 0.000000e+000 0.000000e+000
    outer loop
      vertex  2.329107e+001 1.000000e+001 -1.000000e+001
      vertex  2.329107e+001 -1.000000e+001 1.000000e+001
      vertex  2.329107e+001 1.000000e+001 1.000000e+001
    endloop
  endfacet
  facet normal -1.000000e+000 0.000000e+000 0.000000e+000
    outer loop
      vertex  2.329107e+001 1.000000e+001 -1.000000e+001
      vertex  2.329107e+001 -1.000000e+001 -1.000000e+001
      vertex  2.329107e+001 -1.000000e+001 1.000000e+001
    endloop
  endfacet
  facet normal 0.000000e+000 0.000000e+000 1.000000e+000
    outer loop
      vertex  2.329107e+001 -1.000000e+001 1.000000e+001
      vertex  4.329107e+001 1.000000e+001 1.000000e+001
      vertex  2.329107e+001 1.000000e+001 1.000000e+001
    endloop
  endfacet
  facet normal 0.000000e+000 0.000000e+000 1.000000e+000
    outer loop
      vertex  2.329107e+001 -1.000000e+001 1.000000e+001
      vertex  4.329107e+001 -1.000000e+001 1.000000e+001
      vertex  4.329107e+001 1.000000e+001 1.000000e+001
    endloop
  endfacet
  facet normal 0.000000e+000 0.000000e+000 -1.000000e+000
    outer loop
      vertex  2.329107e+001 1.000000e+001 -1.000000e+001
      vertex  4.329107e+001 -1.000000e+001 -1.000000e+001
      vertex  2.329107e+001 -1.000000e+001 -1.000000e+001
    endloop
  endfacet
  facet normal 0.000000e+000 0.000000e+000 -1.000000e+000
    outer loop
      vertex  2.329107e+001 1.000000e+001 -1.000000e+001
      vertex  4.329107e+001 1.000000e+001 -1.000000e+001
      vertex  4.329107e+001 -1.000000e+001 -1.000000e+001
    endloop
  endfacet
  facet normal 0.000000e+000 -1.000000e+000 0.000000e+000
    outer loop
      vertex  -1.000000e+001 -1.000000e+001 5.552756e+000
      vertex  1.000000e+001 -1.000000e+001 2.555276e+001
      vertex  -1.000000e+001 -1.000000e+001 2.555276e+001
    endloop
  endfacet
  facet normal 0.000000e+000 -1.000000e+000 0.000000e+000
    outer loop
      vertex  -1.000000e+001 -1.000000e+001 5.552756e+000
      vertex  1.000000e+001 -1.000000e+001 5.552756e+000
      vertex  1.000000e+001 -1.000000e+001 2.555276e+001
    endloop
  endfacet
  facet normal 1.000000e+000 0.000000e+000 0.000000e+000
    outer loop
      vertex  1.000000e+001 -1.000000e+001 5.552756e+000
      vertex  1.000000e+001 1.000000e+001 2.555276e+001
      vertex  1.000000e+001 -1.000000e+001 2.555276e+001
    endloop
  endfacet
  facet normal 1.000000e+000 0.000000e+000 0.000000e+000
    outer loop
      vertex  1.000000e+001 -1.000000e+001 5.552756e+000
      vertex  1.000000e+001 1.000000e+001 5.552756e+000
      vertex  1.000000e+001 1.000000e+001 2.555276e+001
    endloop
  endfacet
  facet normal 0.000000e+000 1.000000e+000 -0.000000e+000
    outer loop
      vertex  1.000000e+001 1.000000e+001 5.552756e+000
      vertex  -1.000000e+001 1.000000e+001 2.555276e+001
      vertex  1.000000e+001 1.000000e+001 2.555276e+001
    endloop
  endfacet
  facet normal 0.000000e+000 1.000000e+000 0.000000e+000
    outer loop
      vertex  1.000000e+001 1.000000e+001 5.552756e+000
      vertex  -1.000000e+001 1.000000e+001 5.552756e+000
      vertex  -1.000000e+001 1.000000e+001 2.555276e+001
    endloop
  endfacet
  facet normal -1.000000e+000 0.000000e+000 0.000000e+000
    outer loop
      vertex  -1.000000e+001 1.000000e+001 5.552756e+000
      vertex  -1.000000e+001 -1.000000e+001 2.555276e+001
      vertex  -1.000000e+001 1.000000e+001 2.555276e+001
    endloop
  endfacet
  facet normal -1.000000e+000 0.000000e+000 0.000000e+000
    outer loop
      vertex  -1.000000e+001 1.000000e+001 5.552756e+000
      vertex  -1.000000e+001 -1.000000e+001 5.552756e+000
      vertex  -1.000000e+001 -1.000000e+001 2.555276e+001
    endloop
  endfacet
  facet normal 0.000000e+000 0.000000e+000 1.000000e+000
    outer loop
      vertex  -1.000000e+001 -1.000000e+001 2.555276e+001
      vertex  1.000000e+001 1.000000e+001 2.555276e+001
      vertex  -1.000000e+001 1.000000e+001 2.555276e+001
    endloop
  endfacet
  facet normal 0.000000e+000 0.000000e+000 1.000000e+000
    outer loop
      vertex  -1.000000e+001 -1.000000e+001 2.555276e+001
      vertex  1.000000e+001 -1.000000e+001 2.555276e+001
      vertex  1.000000e+001 1.000000e+001 2.555276e+001
    endloop
  endfacet
  facet normal 0.000000e+000 0.000000e+000 -1.000000e+000
    outer loop
      vertex  -1.000000e+001 1.000000e+001 5.552756e+000
      vertex  1.000000e+001 -1.000000e+001 5.552756e+000
      vertex  -1.000000e+001 -1.000000e+001 5.552756e+000
    endloop
  endfacet
  facet normal 0.000000e+000 0.000000e+000 -1.000000e+000
    outer loop
      vertex  -1.000000e+001 1.000000e+001 5.552756e+000
      vertex  1.000000e+001 1.000000e+001 5.552756e+000
      vertex  1.000000e+001 -1.000000e+001 5.552756e+000
    endloop
  endfacet
endsolid vcg
