solid STL generated by MeshLab
  facet normal 0.000000e+000 -2.239829e-001 9.745930e-001
    outer loop
      vertex  1.727380e+001 -1.198576e+001 7.506101e+000
      vertex  3.727380e+001 7.506101e+000 1.198576e+001
      vertex  1.727380e+001 7.506101e+000 1.198576e+001
    endloop
  endfacet
  facet normal 0.000000e+000 -2.239829e-001 9.745930e-001
    outer loop
      vertex  1.727380e+001 -1.198576e+001 7.506101e+000
      vertex  3.727380e+001 -1.198576e+001 7.506101e+000
      vertex  3.727380e+001 7.506101e+000 1.198576e+001
    endloop
  endfacet
  facet normal 1.000000e+000 -0.000000e+000 0.000000e+000
    outer loop
      vertex  3.727380e+001 -1.198576e+001 7.506101e+000
      vertex  3.727380e+001 1.198576e+001 -7.506101e+000
      vertex  3.727380e+001 7.506101e+000 1.198576e+001
    endloop
  endfacet
  facet normal 1.000000e+000 0.000000e+000 0.000000e+000
    outer loop
      vertex  3.727380e+001 -1.198576e+001 7.506101e+000
      vertex  3.727380e+001 -7.506101e+000 -1.198576e+001
      vertex  3.727380e+001 1.198576e+001 -7.506101e+000
    endloop
  endfacet
  facet normal 0.000000e+000 2.239829e-001 -9.745930e-001
    outer loop
      vertex  3.727380e+001 -7.506101e+000 -1.198576e+001
      vertex  1.727380e+001 1.198576e+001 -7.506101e+000
      vertex  3.727380e+001 1.198576e+001 -7.506101e+000
    endloop
  endfacet
  facet normal 0.000000e+000 2.239829e-001 -9.745930e-001
    outer loop
      vertex  3.727380e+001 -7.506101e+000 -1.198576e+001
      vertex  1.727380e+001 -7.506101e+000 -1.198576e+001
      vertex  1.727380e+001 1.198576e+001 -7.506101e+000
    endloop
  endfacet
  facet normal -1.000000e+000 0.000000e+000 0.000000e+000
    outer loop
      vertex  1.727380e+001 -7.506101e+000 -1.198576e+001
      vertex  1.727380e+001 7.506101e+000 1.198576e+001
      vertex  1.727380e+001 1.198576e+001 -7.506101e+000
    endloop
  endfacet
  facet normal -1.000000e+000 0.000000e+000 0.000000e+000
    outer loop
      vertex  1.727380e+001 -7.506101e+000 -1.198576e+001
      vertex  1.727380e+001 -1.198576e+001 7.506101e+000
      vertex  1.727380e+001 7.506101e+000 1.198576e+001
    endloop
  endfacet
  facet normal 0.000000e+000 9.745930e-001 2.239829e-001
    outer loop
      vertex  1.727380e+001 7.506101e+000 1.198576e+001
      vertex  3.727380e+001 1.198576e+001 -7.506101e+000
      vertex  1.727380e+001 1.198576e+001 -7.506101e+000
    endloop
  endfacet
  facet normal -0.000000e+000 9.745930e-001 2.239829e-001
    outer loop
      vertex  1.727380e+001 7.506101e+000 1.198576e+001
      vertex  3.727380e+001 7.506101e+000 1.198576e+001
      vertex  3.727380e+001 1.198576e+001 -7.506101e+000
    endloop
  endfacet
  facet normal 0.000000e+000 -9.745930e-001 -2.239829e-001
    outer loop
      vertex  1.727380e+001 -7.506101e+000 -1.198576e+001
      vertex  3.727380e+001 -1.198576e+001 7.506101e+000
      vertex  1.727380e+001 -1.198576e+001 7.506101e+000
    endloop
  endfacet
  facet normal 0.000000e+000 -9.745930e-001 -2.239829e-001
    outer loop
      vertex  1.727380e+001 -7.506101e+000 -1.198576e+001
      vertex  3.727380e+001 -7.506101e+000 -1.198576e+001
      vertex  3.727380e+001 -1.198576e+001 7.506101e+000
    endloop
  endfacet
  facet normal 0.000000e+000 -1.000000e+000 0.000000e+000
    outer loop
      vertex  -1.388909e+001 -3.879650e+001 2.663308e+000
      vertex  1.388909e+001 -3.879650e+001 -2.663308e+000
      vertex  2.663308e+000 -3.879650e+001 1.388909e+001
    endloop
  endfacet
  facet normal 0.000000e+000 -1.000000e+000 0.000000e+000
    outer loop
      vertex  -1.388909e+001 -3.879650e+001 2.663308e+000
      vertex  -2.663308e+000 -3.879650e+001 -1.388909e+001
      vertex  1.388909e+001 -3.879650e+001 -2.663308e+000
    endloop
  endfacet
  facet normal 5.612890e-001 0.000000e+000 -8.276199e-001
    outer loop
      vertex  -2.663308e+000 -3.879650e+001 -1.388909e+001
      vertex  1.388909e+001 -1.879650e+001 -2.663308e+000
      vertex  1.388909e+001 -3.879650e+001 -2.663308e+000
    endloop
  endfacet
  facet normal 5.612890e-001 0.000000e+000 -8.276199e-001
    outer loop
      vertex  -2.663308e+000 -3.879650e+001 -1.388909e+001
      vertex  -2.663308e+000 -1.879650e+001 -1.388909e+001
      vertex  1.388909e+001 -1.879650e+001 -2.663308e+000
    endloop
  endfacet
  facet normal 0.000000e+000 1.000000e+000 0.000000e+000
    outer loop
      vertex  -2.663308e+000 -1.879650e+001 -1.388909e+001
      vertex  2.663308e+000 -1.879650e+001 1.388909e+001
      vertex  1.388909e+001 -1.879650e+001 -2.663308e+000
    endloop
  endfacet
  facet normal 0.000000e+000 1.000000e+000 -0.000000e+000
    outer loop
      vertex  -2.663308e+000 -1.879650e+001 -1.388909e+001
      vertex  -1.388909e+001 -1.879650e+001 2.663308e+000
      vertex  2.663308e+000 -1.879650e+001 1.388909e+001
    endloop
  endfacet
  facet normal -5.612890e-001 0.000000e+000 8.276199e-001
    outer loop
      vertex  -1.388909e+001 -1.879650e+001 2.663308e+000
      vertex  2.663308e+000 -3.879650e+001 1.388909e+001
      vertex  2.663308e+000 -1.879650e+001 1.388909e+001
    endloop
  endfacet
  facet normal -5.612890e-001 0.000000e+000 8.276199e-001
    outer loop
      vertex  -1.388909e+001 -1.879650e+001 2.663308e+000
      vertex  -1.388909e+001 -3.879650e+001 2.663308e+000
      vertex  2.663308e+000 -3.879650e+001 1.388909e+001
    endloop
  endfacet
  facet normal 8.276199e-001 -0.000000e+000 5.612890e-001
    outer loop
      vertex  2.663308e+000 -3.879650e+001 1.388909e+001
      vertex  1.388909e+001 -1.879650e+001 -2.663308e+000
      vertex  2.663308e+000 -1.879650e+001 1.388909e+001
    endloop
  endfacet
  facet normal 8.276199e-001 0.000000e+000 5.612890e-001
    outer loop
      vertex  2.663308e+000 -3.879650e+001 1.388909e+001
      vertex  1.388909e+001 -3.879650e+001 -2.663308e+000
      vertex  1.388909e+001 -1.879650e+001 -2.663308e+000
    endloop
  endfacet
  facet normal -8.276199e-001 -0.000000e+000 -5.612890e-001
    outer loop
      vertex  -1.388909e+001 -1.879650e+001 2.663308e+000
      vertex  -2.663308e+000 -3.879650e+001 -1.388909e+001
      vertex  -1.388909e+001 -3.879650e+001 2.663308e+000
    endloop
  endfacet
  facet normal -8.276199e-001 0.000000e+000 -5.612890e-001
    outer loop
      vertex  -1.388909e+001 -1.879650e+001 2.663308e+000
      vertex  -2.663308e+000 -1.879650e+001 -1.388909e+001
      vertex  -2.663308e+000 -3.879650e+001 -1.388909e+001
    endloop
  endfacet
  facet normal 0.000000e+000 -8.396643e-001 -5.431058e-001
    outer loop
      vertex  -1.000000e+001 3.561771e+001 -1.382770e+001
      vertex  1.000000e+001 2.475560e+001 2.965584e+000
      vertex  -1.000000e+001 2.475560e+001 2.965584e+000
    endloop
  endfacet
  facet normal 0.000000e+000 -8.396643e-001 -5.431058e-001
    outer loop
      vertex  -1.000000e+001 3.561771e+001 -1.382770e+001
      vertex  1.000000e+001 3.561771e+001 -1.382770e+001
      vertex  1.000000e+001 2.475560e+001 2.965584e+000
    endloop
  endfacet
  facet normal 1.000000e+000 0.000000e+000 -0.000000e+000
    outer loop
      vertex  1.000000e+001 3.561771e+001 -1.382770e+001
      vertex  1.000000e+001 4.154888e+001 1.382770e+001
      vertex  1.000000e+001 2.475560e+001 2.965584e+000
    endloop
  endfacet
  facet normal 1.000000e+000 0.000000e+000 0.000000e+000
    outer loop
      vertex  1.000000e+001 3.561771e+001 -1.382770e+001
      vertex  1.000000e+001 5.241100e+001 -2.965584e+000
      vertex  1.000000e+001 4.154888e+001 1.382770e+001
    endloop
  endfacet
  facet normal 0.000000e+000 8.396642e-001 5.431058e-001
    outer loop
      vertex  1.000000e+001 5.241100e+001 -2.965584e+000
      vertex  -1.000000e+001 4.154888e+001 1.382770e+001
      vertex  1.000000e+001 4.154888e+001 1.382770e+001
    endloop
  endfacet
  facet normal 0.000000e+000 8.396642e-001 5.431058e-001
    outer loop
      vertex  1.000000e+001 5.241100e+001 -2.965584e+000
      vertex  -1.000000e+001 5.241100e+001 -2.965584e+000
      vertex  -1.000000e+001 4.154888e+001 1.382770e+001
    endloop
  endfacet
  facet normal -1.000000e+000 0.000000e+000 0.000000e+000
    outer loop
      vertex  -1.000000e+001 5.241100e+001 -2.965584e+000
      vertex  -1.000000e+001 2.475560e+001 2.965584e+000
      vertex  -1.000000e+001 4.154888e+001 1.382770e+001
    endloop
  endfacet
  facet normal -1.000000e+000 -0.000000e+000 0.000000e+000
    outer loop
      vertex  -1.000000e+001 5.241100e+001 -2.965584e+000
      vertex  -1.000000e+001 3.561771e+001 -1.382770e+001
      vertex  -1.000000e+001 2.475560e+001 2.965584e+000
    endloop
  endfacet
  facet normal 0.000000e+000 -5.431059e-001 8.396642e-001
    outer loop
      vertex  -1.000000e+001 2.475560e+001 2.965584e+000
      vertex  1.000000e+001 4.154888e+001 1.382770e+001
      vertex  -1.000000e+001 4.154888e+001 1.382770e+001
    endloop
  endfacet
  facet normal 0.000000e+000 -5.431059e-001 8.396642e-001
    outer loop
      vertex  -1.000000e+001 2.475560e+001 2.965584e+000
      vertex  1.000000e+001 2.475560e+001 2.965584e+000
      vertex  1.000000e+001 4.154888e+001 1.382770e+001
    endloop
  endfacet
  facet normal 0.000000e+000 5.431058e-001 -8.396642e-001
    outer loop
      vertex  -1.000000e+001 5.241100e+001 -2.965584e+000
      vertex  1.000000e+001 3.561771e+001 -1.382770e+001
      vertex  -1.000000e+001 3.561771e+001 -1.382770e+001
    endloop
  endfacet
  facet normal 0.000000e+000 5.431058e-001 -8.396642e-001
    outer loop
      vertex  -1.000000e+001 5.241100e+001 -2.965584e+000
      vertex  1.000000e+001 5.241100e+001 -2.965584e+000
      vertex  1.000000e+001 3.561771e+001 -1.382770e+001
    endloop
  endfacet
  facet normal 0.000000e+000 -1.000000e+000 0.000000e+000
    outer loop
      vertex  -4.975690e+000 -1.000000e+001 -1.323792e+001
      vertex  4.975690e+000 -1.000000e+001 1.323792e+001
      vertex  -1.323792e+001 -1.000000e+001 4.975690e+000
    endloop
  endfacet
  facet normal 0.000000e+000 -1.000000e+000 0.000000e+000
    outer loop
      vertex  -4.975690e+000 -1.000000e+001 -1.323792e+001
      vertex  1.323792e+001 -1.000000e+001 -4.975690e+000
      vertex  4.975690e+000 -1.000000e+001 1.323792e+001
    endloop
  endfacet
  facet normal 9.106805e-001 0.000000e+000 4.131115e-001
    outer loop
      vertex  1.323792e+001 -1.000000e+001 -4.975690e+000
      vertex  4.975690e+000 1.000000e+001 1.323792e+001
      vertex  4.975690e+000 -1.000000e+001 1.323792e+001
    endloop
  endfacet
  facet normal 9.106805e-001 -0.000000e+000 4.131115e-001
    outer loop
      vertex  1.323792e+001 -1.000000e+001 -4.975690e+000
      vertex  1.323792e+001 1.000000e+001 -4.975690e+000
      vertex  4.975690e+000 1.000000e+001 1.323792e+001
    endloop
  endfacet
  facet normal 0.000000e+000 1.000000e+000 0.000000e+000
    outer loop
      vertex  1.323792e+001 1.000000e+001 -4.975690e+000
      vertex  -1.323792e+001 1.000000e+001 4.975690e+000
      vertex  4.975690e+000 1.000000e+001 1.323792e+001
    endloop
  endfacet
  facet normal 0.000000e+000 1.000000e+000 0.000000e+000
    outer loop
      vertex  1.323792e+001 1.000000e+001 -4.975690e+000
      vertex  -4.975690e+000 1.000000e+001 -1.323792e+001
      vertex  -1.323792e+001 1.000000e+001 4.975690e+000
    endloop
  endfacet
  facet normal -9.106805e-001 0.000000e+000 -4.131115e-001
    outer loop
      vertex  -4.975690e+000 1.000000e+001 -1.323792e+001
      vertex  -1.323792e+001 -1.000000e+001 4.975690e+000
      vertex  -1.323792e+001 1.000000e+001 4.975690e+000
    endloop
  endfacet
  facet normal -9.106805e-001 -0.000000e+000 -4.131115e-001
    outer loop
      vertex  -4.975690e+000 1.000000e+001 -1.323792e+001
      vertex  -4.975690e+000 -1.000000e+001 -1.323792e+001
      vertex  -1.323792e+001 -1.000000e+001 4.975690e+000
    endloop
  endfacet
  facet normal -4.131115e-001 0.000000e+000 9.106805e-001
    outer loop
      vertex  -1.323792e+001 -1.000000e+001 4.975690e+000
      vertex  4.975690e+000 1.000000e+001 1.323792e+001
      vertex  -1.323792e+001 1.000000e+001 4.975690e+000
    endloop
  endfacet
  facet normal -4.131115e-001 0.000000e+000 9.106805e-001
    outer loop
      vertex  -1.323792e+001 -1.000000e+001 4.975690e+000
      vertex  4.975690e+000 -1.000000e+001 1.323792e+001
      vertex  4.975690e+000 1.000000e+001 1.323792e+001
    endloop
  endfacet
  facet normal 4.131115e-001 0.000000e+000 -9.106805e-001
    outer loop
      vertex  -4.975690e+000 1.000000e+001 -1.323792e+001
      vertex  1.323792e+001 -1.000000e+001 -4.975690e+000
      vertex  -4.975690e+000 -1.000000e+001 -1.323792e+001
    endloop
  endfacet
  facet normal 4.131115e-001 0.000000e+000 -9.106805e-001
    outer loop
      vertex  -4.975690e+000 1.000000e+001 -1.323792e+001
      vertex  1.323792e+001 1.000000e+001 -4.975690e+000
      vertex  1.323792e+001 -1.000000e+001 -4.975690e+000
    endloop
  endfacet
endsolid vcg
