solid STL generated by MeshLab
  facet normal 0.000000e+000 -1.000000e+000 0.000000e+000
    outer loop
      vertex  -1.000000e+001 2.858330e+001 -1.000000e+001
      vertex  1.000000e+001 2.858330e+001 1.000000e+001
      vertex  -1.000000e+001 2.858330e+001 1.000000e+001
    endloop
  endfacet
  facet normal 0.000000e+000 -1.000000e+000 0.000000e+000
    outer loop
      vertex  -1.000000e+001 2.858330e+001 -1.000000e+001
      vertex  1.000000e+001 2.858330e+001 -1.000000e+001
      vertex  1.000000e+001 2.858330e+001 1.000000e+001
    endloop
  endfacet
  facet normal 1.000000e+000 0.000000e+000 0.000000e+000
    outer loop
      vertex  1.000000e+001 2.858330e+001 -1.000000e+001
      vertex  1.000000e+001 4.858330e+001 1.000000e+001
      vertex  1.000000e+001 2.858330e+001 1.000000e+001
    endloop
  endfacet
  facet normal 1.000000e+000 0.000000e+000 0.000000e+000
    outer loop
      vertex  1.000000e+001 2.858330e+001 -1.000000e+001
      vertex  1.000000e+001 4.858330e+001 -1.000000e+001
      vertex  1.000000e+001 4.858330e+001 1.000000e+001
    endloop
  endfacet
  facet normal 0.000000e+000 1.000000e+000 -0.000000e+000
    outer loop
      vertex  1.000000e+001 4.858330e+001 -1.000000e+001
      vertex  -1.000000e+001 4.858330e+001 1.000000e+001
      vertex  1.000000e+001 4.858330e+001 1.000000e+001
    endloop
  endfacet
  facet normal 0.000000e+000 1.000000e+000 0.000000e+000
    outer loop
      vertex  1.000000e+001 4.858330e+001 -1.000000e+001
      vertex  -1.000000e+001 4.858330e+001 -1.000000e+001
      vertex  -1.000000e+001 4.858330e+001 1.000000e+001
    endloop
  endfacet
  facet normal -1.000000e+000 0.000000e+000 0.000000e+000
    outer loop
      vertex  -1.000000e+001 4.858330e+001 -1.000000e+001
      vertex  -1.000000e+001 2.858330e+001 1.000000e+001
      vertex  -1.000000e+001 4.858330e+001 1.000000e+001
    endloop
  endfacet
  facet normal -1.000000e+000 0.000000e+000 0.000000e+000
    outer loop
      vertex  -1.000000e+001 4.858330e+001 -1.000000e+001
      vertex  -1.000000e+001 2.858330e+001 -1.000000e+001
      vertex  -1.000000e+001 2.858330e+001 1.000000e+001
    endloop
  endfacet
  facet normal 0.000000e+000 0.000000e+000 1.000000e+000
    outer loop
      vertex  -1.000000e+001 2.858330e+001 1.000000e+001
      vertex  1.000000e+001 4.858330e+001 1.000000e+001
      vertex  -1.000000e+001 4.858330e+001 1.000000e+001
    endloop
  endfacet
  facet normal 0.000000e+000 0.000000e+000 1.000000e+000
    outer loop
      vertex  -1.000000e+001 2.858330e+001 1.000000e+001
      vertex  1.000000e+001 2.858330e+001 1.000000e+001
      vertex  1.000000e+001 4.858330e+001 1.000000e+001
    endloop
  endfacet
  facet normal 0.000000e+000 0.000000e+000 -1.000000e+000
    outer loop
      vertex  -1.000000e+001 4.858330e+001 -1.000000e+001
      vertex  1.000000e+001 2.858330e+001 -1.000000e+001
      vertex  -1.000000e+001 2.858330e+001 -1.000000e+001
    endloop
  endfacet
  facet normal 0.000000e+000 0.000000e+000 -1.000000e+000
    outer loop
      vertex  -1.000000e+001 4.858330e+001 -1.000000e+001
      vertex  1.000000e+001 4.858330e+001 -1.000000e+001
      vertex  1.000000e+001 2.858330e+001 -1.000000e+001
    endloop
  endfacet
  facet normal 0.000000e+000 -1.000000e+000 0.000000e+000
    outer loop
      vertex  -1.000000e+001 -1.000000e+001 -1.000000e+001
      vertex  1.000000e+001 -1.000000e+001 1.000000e+001
      vertex  -1.000000e+001 -1.000000e+001 1.000000e+001
    endloop
  endfacet
  facet normal 0.000000e+000 -1.000000e+000 0.000000e+000
    outer loop
      vertex  -1.000000e+001 -1.000000e+001 -1.000000e+001
      vertex  1.000000e+001 -1.000000e+001 -1.000000e+001
      vertex  1.000000e+001 -1.000000e+001 1.000000e+001
    endloop
  endfacet
  facet normal 1.000000e+000 0.000000e+000 0.000000e+000
    outer loop
      vertex  1.000000e+001 -1.000000e+001 -1.000000e+001
      vertex  1.000000e+001 1.000000e+001 1.000000e+001
      vertex  1.000000e+001 -1.000000e+001 1.000000e+001
    endloop
  endfacet
  facet normal 1.000000e+000 0.000000e+000 0.000000e+000
    outer loop
      vertex  1.000000e+001 -1.000000e+001 -1.000000e+001
      vertex  1.000000e+001 1.000000e+001 -1.000000e+001
      vertex  1.000000e+001 1.000000e+001 1.000000e+001
    endloop
  endfacet
  facet normal 0.000000e+000 1.000000e+000 -0.000000e+000
    outer loop
      vertex  1.000000e+001 1.000000e+001 -1.000000e+001
      vertex  -1.000000e+001 1.000000e+001 1.000000e+001
      vertex  1.000000e+001 1.000000e+001 1.000000e+001
    endloop
  endfacet
  facet normal 0.000000e+000 1.000000e+000 0.000000e+000
    outer loop
      vertex  1.000000e+001 1.000000e+001 -1.000000e+001
      vertex  -1.000000e+001 1.000000e+001 -1.000000e+001
      vertex  -1.000000e+001 1.000000e+001 1.000000e+001
    endloop
  endfacet
  facet normal -1.000000e+000 0.000000e+000 0.000000e+000
    outer loop
      vertex  -1.000000e+001 1.000000e+001 -1.000000e+001
      vertex  -1.000000e+001 -1.000000e+001 1.000000e+001
      vertex  -1.000000e+001 1.000000e+001 1.000000e+001
    endloop
  endfacet
  facet normal -1.000000e+000 0.000000e+000 0.000000e+000
    outer loop
      vertex  -1.000000e+001 1.000000e+001 -1.000000e+001
      vertex  -1.000000e+001 -1.000000e+001 -1.000000e+001
      vertex  -1.000000e+001 -1.000000e+001 1.000000e+001
    endloop
  endfacet
  facet normal 0.000000e+000 0.000000e+000 1.000000e+000
    outer loop
      vertex  -1.000000e+001 -1.000000e+001 1.000000e+001
      vertex  1.000000e+001 1.000000e+001 1.000000e+001
      vertex  -1.000000e+001 1.000000e+001 1.000000e+001
    endloop
  endfacet
  facet normal 0.000000e+000 0.000000e+000 1.000000e+000
    outer loop
      vertex  -1.000000e+001 -1.000000e+001 1.000000e+001
      vertex  1.000000e+001 -1.000000e+001 1.000000e+001
      vertex  1.000000e+001 1.000000e+001 1.000000e+001
    endloop
  endfacet
  facet normal 0.000000e+000 0.000000e+000 -1.000000e+000
    outer loop
      vertex  -1.000000e+001 1.000000e+001 -1.000000e+001
      vertex  1.000000e+001 -1.000000e+001 -1.000000e+001
      vertex  -1.000000e+001 -1.000000e+001 -1.000000e+001
    endloop
  endfacet
  facet normal 0.000000e+000 0.000000e+000 -1.000000e+000
    outer loop
      vertex  -1.000000e+001 1.000000e+001 -1.000000e+001
      vertex  1.000000e+001 1.000000e+001 -1.000000e+001
      vertex  1.000000e+001 -1.000000e+001 -1.000000e+001
    endloop
  endfacet
endsolid vcg
