solid STL generated by MeshLab
  facet normal 7.871137e-001 2.311175e-001 5.718713e-001
    outer loop
      vertex  2.500000e+001 0.000000e+000 3.672523e+001
      vertex  1.812488e+001 1.164815e+001 4.148051e+001
      vertex  2.154509e+001 0.000000e+000 4.148051e+001
    endloop
  endfacet
  facet normal 7.871135e-001 2.311174e-001 5.718715e-001
    outer loop
      vertex  2.500000e+001 0.000000e+000 3.672523e+001
      vertex  2.103134e+001 1.351602e+001 3.672523e+001
      vertex  1.812488e+001 1.164815e+001 4.148051e+001
    endloop
  endfacet
  facet normal -3.077527e-001 -9.036436e-002 9.471655e-001
    outer loop
      vertex  2.154509e+001 0.000000e+000 4.148051e+001
      vertex  1.342213e+001 8.625878e+000 3.966415e+001
      vertex  1.595492e+001 0.000000e+000 3.966415e+001
    endloop
  endfacet
  facet normal -3.077528e-001 -9.036442e-002 9.471655e-001
    outer loop
      vertex  2.154509e+001 0.000000e+000 4.148051e+001
      vertex  1.812488e+001 1.164815e+001 4.148051e+001
      vertex  1.342213e+001 8.625878e+000 3.966415e+001
    endloop
  endfacet
  facet normal -9.594930e-001 -2.817326e-001 -0.000000e+000
    outer loop
      vertex  1.595492e+001 0.000000e+000 3.966415e+001
      vertex  1.342213e+001 8.625878e+000 3.378630e+001
      vertex  1.595492e+001 0.000000e+000 3.378630e+001
    endloop
  endfacet
  facet normal -9.594930e-001 -2.817326e-001 0.000000e+000
    outer loop
      vertex  1.595492e+001 0.000000e+000 3.966415e+001
      vertex  1.342213e+001 8.625878e+000 3.966415e+001
      vertex  1.342213e+001 8.625878e+000 3.378630e+001
    endloop
  endfacet
  facet normal -3.077528e-001 -9.036441e-002 -9.471655e-001
    outer loop
      vertex  1.595492e+001 0.000000e+000 3.378630e+001
      vertex  1.812488e+001 1.164815e+001 3.196994e+001
      vertex  2.154509e+001 0.000000e+000 3.196994e+001
    endloop
  endfacet
  facet normal -3.077529e-001 -9.036440e-002 -9.471655e-001
    outer loop
      vertex  1.595492e+001 0.000000e+000 3.378630e+001
      vertex  1.342213e+001 8.625878e+000 3.378630e+001
      vertex  1.812488e+001 1.164815e+001 3.196994e+001
    endloop
  endfacet
  facet normal 7.871137e-001 2.311175e-001 -5.718713e-001
    outer loop
      vertex  2.154509e+001 0.000000e+000 3.196994e+001
      vertex  2.103134e+001 1.351602e+001 3.672523e+001
      vertex  2.500000e+001 0.000000e+000 3.672523e+001
    endloop
  endfacet
  facet normal 7.871136e-001 2.311175e-001 -5.718715e-001
    outer loop
      vertex  2.154509e+001 0.000000e+000 3.196994e+001
      vertex  1.812488e+001 1.164815e+001 3.196994e+001
      vertex  2.103134e+001 1.351602e+001 3.672523e+001
    endloop
  endfacet
  facet normal 5.372106e-001 6.199740e-001 5.718715e-001
    outer loop
      vertex  2.103134e+001 1.351602e+001 3.672523e+001
      vertex  8.950151e+000 1.959810e+001 4.148051e+001
      vertex  1.812488e+001 1.164815e+001 4.148051e+001
    endloop
  endfacet
  facet normal 5.372106e-001 6.199741e-001 5.718714e-001
    outer loop
      vertex  2.103134e+001 1.351602e+001 3.672523e+001
      vertex  1.038538e+001 2.274080e+001 3.672523e+001
      vertex  8.950151e+000 1.959810e+001 4.148051e+001
    endloop
  endfacet
  facet normal -2.100435e-001 -2.424031e-001 9.471655e-001
    outer loop
      vertex  1.812488e+001 1.164815e+001 4.148051e+001
      vertex  6.627911e+000 1.451310e+001 3.966415e+001
      vertex  1.342213e+001 8.625878e+000 3.966415e+001
    endloop
  endfacet
  facet normal -2.100435e-001 -2.424031e-001 9.471655e-001
    outer loop
      vertex  1.812488e+001 1.164815e+001 4.148051e+001
      vertex  8.950151e+000 1.959810e+001 4.148051e+001
      vertex  6.627911e+000 1.451310e+001 3.966415e+001
    endloop
  endfacet
  facet normal -6.548607e-001 -7.557495e-001 -0.000000e+000
    outer loop
      vertex  1.342213e+001 8.625878e+000 3.966415e+001
      vertex  6.627911e+000 1.451310e+001 3.378630e+001
      vertex  1.342213e+001 8.625878e+000 3.378630e+001
    endloop
  endfacet
  facet normal -6.548607e-001 -7.557495e-001 0.000000e+000
    outer loop
      vertex  1.342213e+001 8.625878e+000 3.966415e+001
      vertex  6.627911e+000 1.451310e+001 3.966415e+001
      vertex  6.627911e+000 1.451310e+001 3.378630e+001
    endloop
  endfacet
  facet normal -2.100435e-001 -2.424031e-001 -9.471655e-001
    outer loop
      vertex  1.342213e+001 8.625878e+000 3.378630e+001
      vertex  8.950151e+000 1.959810e+001 3.196994e+001
      vertex  1.812488e+001 1.164815e+001 3.196994e+001
    endloop
  endfacet
  facet normal -2.100435e-001 -2.424031e-001 -9.471655e-001
    outer loop
      vertex  1.342213e+001 8.625878e+000 3.378630e+001
      vertex  6.627911e+000 1.451310e+001 3.378630e+001
      vertex  8.950151e+000 1.959810e+001 3.196994e+001
    endloop
  endfacet
  facet normal 5.372106e-001 6.199741e-001 -5.718715e-001
    outer loop
      vertex  1.812488e+001 1.164815e+001 3.196994e+001
      vertex  1.038538e+001 2.274080e+001 3.672523e+001
      vertex  2.103134e+001 1.351602e+001 3.672523e+001
    endloop
  endfacet
  facet normal 5.372107e-001 6.199741e-001 -5.718713e-001
    outer loop
      vertex  1.812488e+001 1.164815e+001 3.196994e+001
      vertex  8.950151e+000 1.959810e+001 3.196994e+001
      vertex  1.038538e+001 2.274080e+001 3.672523e+001
    endloop
  endfacet
  facet normal 1.167470e-001 8.119935e-001 5.718713e-001
    outer loop
      vertex  1.038538e+001 2.274080e+001 3.672523e+001
      vertex  -3.066185e+000 2.132579e+001 4.148051e+001
      vertex  8.950151e+000 1.959810e+001 4.148051e+001
    endloop
  endfacet
  facet normal 1.167471e-001 8.119933e-001 5.718716e-001
    outer loop
      vertex  1.038538e+001 2.274080e+001 3.672523e+001
      vertex  -3.557871e+000 2.474554e+001 3.672523e+001
      vertex  -3.066185e+000 2.132579e+001 4.148051e+001
    endloop
  endfacet
  facet normal -4.564679e-002 -3.174805e-001 9.471655e-001
    outer loop
      vertex  8.950151e+000 1.959810e+001 4.148051e+001
      vertex  -2.270621e+000 1.579252e+001 3.966415e+001
      vertex  6.627911e+000 1.451310e+001 3.966415e+001
    endloop
  endfacet
  facet normal -4.564679e-002 -3.174805e-001 9.471655e-001
    outer loop
      vertex  8.950151e+000 1.959810e+001 4.148051e+001
      vertex  -3.066185e+000 2.132579e+001 4.148051e+001
      vertex  -2.270621e+000 1.579252e+001 3.966415e+001
    endloop
  endfacet
  facet normal -1.423148e-001 -9.898214e-001 -0.000000e+000
    outer loop
      vertex  6.627911e+000 1.451310e+001 3.966415e+001
      vertex  -2.270621e+000 1.579252e+001 3.378630e+001
      vertex  6.627911e+000 1.451310e+001 3.378630e+001
    endloop
  endfacet
  facet normal -1.423148e-001 -9.898214e-001 0.000000e+000
    outer loop
      vertex  6.627911e+000 1.451310e+001 3.966415e+001
      vertex  -2.270621e+000 1.579252e+001 3.966415e+001
      vertex  -2.270621e+000 1.579252e+001 3.378630e+001
    endloop
  endfacet
  facet normal -4.564679e-002 -3.174805e-001 -9.471655e-001
    outer loop
      vertex  6.627911e+000 1.451310e+001 3.378630e+001
      vertex  -3.066185e+000 2.132579e+001 3.196994e+001
      vertex  8.950151e+000 1.959810e+001 3.196994e+001
    endloop
  endfacet
  facet normal -4.564679e-002 -3.174805e-001 -9.471655e-001
    outer loop
      vertex  6.627911e+000 1.451310e+001 3.378630e+001
      vertex  -2.270621e+000 1.579252e+001 3.378630e+001
      vertex  -3.066185e+000 2.132579e+001 3.196994e+001
    endloop
  endfacet
  facet normal 1.167471e-001 8.119934e-001 -5.718713e-001
    outer loop
      vertex  8.950151e+000 1.959810e+001 3.196994e+001
      vertex  -3.557871e+000 2.474554e+001 3.672523e+001
      vertex  1.038538e+001 2.274080e+001 3.672523e+001
    endloop
  endfacet
  facet normal 1.167470e-001 8.119933e-001 -5.718716e-001
    outer loop
      vertex  8.950151e+000 1.959810e+001 3.196994e+001
      vertex  -3.066185e+000 2.132579e+001 3.196994e+001
      vertex  -3.557871e+000 2.474554e+001 3.672523e+001
    endloop
  endfacet
  facet normal -3.407829e-001 7.462104e-001 5.718715e-001
    outer loop
      vertex  -3.557871e+000 2.474554e+001 3.672523e+001
      vertex  -1.410903e+001 1.628269e+001 4.148051e+001
      vertex  -3.066185e+000 2.132579e+001 4.148051e+001
    endloop
  endfacet
  facet normal -3.407829e-001 7.462105e-001 5.718716e-001
    outer loop
      vertex  -3.557871e+000 2.474554e+001 3.672523e+001
      vertex  -1.637152e+001 1.889374e+001 3.672523e+001
      vertex  -1.410903e+001 1.628269e+001 4.148051e+001
    endloop
  endfacet
  facet normal 1.332424e-001 -2.917601e-001 9.471655e-001
    outer loop
      vertex  -3.066185e+000 2.132579e+001 4.148051e+001
      vertex  -1.044825e+001 1.205792e+001 3.966415e+001
      vertex  -2.270621e+000 1.579252e+001 3.966415e+001
    endloop
  endfacet
  facet normal 1.332424e-001 -2.917601e-001 9.471655e-001
    outer loop
      vertex  -3.066185e+000 2.132579e+001 4.148051e+001
      vertex  -1.410903e+001 1.628269e+001 4.148051e+001
      vertex  -1.044825e+001 1.205792e+001 3.966415e+001
    endloop
  endfacet
  facet normal 4.154150e-001 -9.096320e-001 0.000000e+000
    outer loop
      vertex  -2.270621e+000 1.579252e+001 3.966415e+001
      vertex  -1.044825e+001 1.205792e+001 3.378630e+001
      vertex  -2.270621e+000 1.579252e+001 3.378630e+001
    endloop
  endfacet
  facet normal 4.154150e-001 -9.096320e-001 0.000000e+000
    outer loop
      vertex  -2.270621e+000 1.579252e+001 3.966415e+001
      vertex  -1.044825e+001 1.205792e+001 3.966415e+001
      vertex  -1.044825e+001 1.205792e+001 3.378630e+001
    endloop
  endfacet
  facet normal 1.332424e-001 -2.917601e-001 -9.471655e-001
    outer loop
      vertex  -2.270621e+000 1.579252e+001 3.378630e+001
      vertex  -1.410903e+001 1.628269e+001 3.196994e+001
      vertex  -3.066185e+000 2.132579e+001 3.196994e+001
    endloop
  endfacet
  facet normal 1.332424e-001 -2.917602e-001 -9.471655e-001
    outer loop
      vertex  -2.270621e+000 1.579252e+001 3.378630e+001
      vertex  -1.044825e+001 1.205792e+001 3.378630e+001
      vertex  -1.410903e+001 1.628269e+001 3.196994e+001
    endloop
  endfacet
  facet normal -3.407829e-001 7.462105e-001 -5.718715e-001
    outer loop
      vertex  -3.066185e+000 2.132579e+001 3.196994e+001
      vertex  -1.637152e+001 1.889374e+001 3.672523e+001
      vertex  -3.557871e+000 2.474554e+001 3.672523e+001
    endloop
  endfacet
  facet normal -3.407829e-001 7.462104e-001 -5.718716e-001
    outer loop
      vertex  -3.066185e+000 2.132579e+001 3.196994e+001
      vertex  -1.410903e+001 1.628269e+001 3.196994e+001
      vertex  -1.637152e+001 1.889374e+001 3.672523e+001
    endloop
  endfacet
  facet normal -6.901166e-001 4.435111e-001 5.718716e-001
    outer loop
      vertex  -1.637152e+001 1.889374e+001 3.672523e+001
      vertex  -2.067236e+001 6.069952e+000 4.148051e+001
      vertex  -1.410903e+001 1.628269e+001 4.148051e+001
    endloop
  endfacet
  facet normal -6.901168e-001 4.435110e-001 5.718714e-001
    outer loop
      vertex  -1.637152e+001 1.889374e+001 3.672523e+001
      vertex  -2.398732e+001 7.043314e+000 3.672523e+001
      vertex  -2.067236e+001 6.069952e+000 4.148051e+001
    endloop
  endfacet
  facet normal 2.698281e-001 -1.734080e-001 9.471655e-001
    outer loop
      vertex  -1.410903e+001 1.628269e+001 4.148051e+001
      vertex  -1.530863e+001 4.495019e+000 3.966415e+001
      vertex  -1.044825e+001 1.205792e+001 3.966415e+001
    endloop
  endfacet
  facet normal 2.698281e-001 -1.734080e-001 9.471655e-001
    outer loop
      vertex  -1.410903e+001 1.628269e+001 4.148051e+001
      vertex  -2.067236e+001 6.069952e+000 4.148051e+001
      vertex  -1.530863e+001 4.495019e+000 3.966415e+001
    endloop
  endfacet
  facet normal 8.412535e-001 -5.406408e-001 0.000000e+000
    outer loop
      vertex  -1.044825e+001 1.205792e+001 3.966415e+001
      vertex  -1.530863e+001 4.495019e+000 3.378630e+001
      vertex  -1.044825e+001 1.205792e+001 3.378630e+001
    endloop
  endfacet
  facet normal 8.412535e-001 -5.406408e-001 0.000000e+000
    outer loop
      vertex  -1.044825e+001 1.205792e+001 3.966415e+001
      vertex  -1.530863e+001 4.495019e+000 3.966415e+001
      vertex  -1.530863e+001 4.495019e+000 3.378630e+001
    endloop
  endfacet
  facet normal 2.698281e-001 -1.734080e-001 -9.471655e-001
    outer loop
      vertex  -1.044825e+001 1.205792e+001 3.378630e+001
      vertex  -2.067236e+001 6.069952e+000 3.196994e+001
      vertex  -1.410903e+001 1.628269e+001 3.196994e+001
    endloop
  endfacet
  facet normal 2.698281e-001 -1.734080e-001 -9.471656e-001
    outer loop
      vertex  -1.044825e+001 1.205792e+001 3.378630e+001
      vertex  -1.530863e+001 4.495019e+000 3.378630e+001
      vertex  -2.067236e+001 6.069952e+000 3.196994e+001
    endloop
  endfacet
  facet normal -6.901166e-001 4.435109e-001 -5.718715e-001
    outer loop
      vertex  -1.410903e+001 1.628269e+001 3.196994e+001
      vertex  -2.398732e+001 7.043314e+000 3.672523e+001
      vertex  -1.637152e+001 1.889374e+001 3.672523e+001
    endloop
  endfacet
  facet normal -6.901167e-001 4.435112e-001 -5.718713e-001
    outer loop
      vertex  -1.410903e+001 1.628269e+001 3.196994e+001
      vertex  -2.067236e+001 6.069952e+000 3.196994e+001
      vertex  -2.398732e+001 7.043314e+000 3.672523e+001
    endloop
  endfacet
  facet normal -8.203433e-001 0.000000e+000 5.718713e-001
    outer loop
      vertex  -2.398732e+001 7.043314e+000 3.672523e+001
      vertex  -2.067236e+001 -6.069952e+000 4.148051e+001
      vertex  -2.067236e+001 6.069952e+000 4.148051e+001
    endloop
  endfacet
  facet normal -8.203433e-001 0.000000e+000 5.718714e-001
    outer loop
      vertex  -2.398732e+001 7.043314e+000 3.672523e+001
      vertex  -2.398732e+001 -7.043314e+000 3.672523e+001
      vertex  -2.067236e+001 -6.069952e+000 4.148051e+001
    endloop
  endfacet
  facet normal 3.207453e-001 0.000000e+000 9.471655e-001
    outer loop
      vertex  -2.067236e+001 6.069952e+000 4.148051e+001
      vertex  -1.530863e+001 -4.495019e+000 3.966415e+001
      vertex  -1.530863e+001 4.495019e+000 3.966415e+001
    endloop
  endfacet
  facet normal 3.207452e-001 0.000000e+000 9.471655e-001
    outer loop
      vertex  -2.067236e+001 6.069952e+000 4.148051e+001
      vertex  -2.067236e+001 -6.069952e+000 4.148051e+001
      vertex  -1.530863e+001 -4.495019e+000 3.966415e+001
    endloop
  endfacet
  facet normal 1.000000e+000 0.000000e+000 0.000000e+000
    outer loop
      vertex  -1.530863e+001 4.495019e+000 3.966415e+001
      vertex  -1.530863e+001 -4.495019e+000 3.378630e+001
      vertex  -1.530863e+001 4.495019e+000 3.378630e+001
    endloop
  endfacet
  facet normal 1.000000e+000 0.000000e+000 0.000000e+000
    outer loop
      vertex  -1.530863e+001 4.495019e+000 3.966415e+001
      vertex  -1.530863e+001 -4.495019e+000 3.966415e+001
      vertex  -1.530863e+001 -4.495019e+000 3.378630e+001
    endloop
  endfacet
  facet normal 3.207452e-001 0.000000e+000 -9.471655e-001
    outer loop
      vertex  -1.530863e+001 4.495019e+000 3.378630e+001
      vertex  -2.067236e+001 -6.069952e+000 3.196994e+001
      vertex  -2.067236e+001 6.069952e+000 3.196994e+001
    endloop
  endfacet
  facet normal 3.207453e-001 0.000000e+000 -9.471655e-001
    outer loop
      vertex  -1.530863e+001 4.495019e+000 3.378630e+001
      vertex  -1.530863e+001 -4.495019e+000 3.378630e+001
      vertex  -2.067236e+001 -6.069952e+000 3.196994e+001
    endloop
  endfacet
  facet normal -8.203433e-001 0.000000e+000 -5.718713e-001
    outer loop
      vertex  -2.067236e+001 6.069952e+000 3.196994e+001
      vertex  -2.398732e+001 -7.043314e+000 3.672523e+001
      vertex  -2.398732e+001 7.043314e+000 3.672523e+001
    endloop
  endfacet
  facet normal -8.203433e-001 -0.000000e+000 -5.718713e-001
    outer loop
      vertex  -2.067236e+001 6.069952e+000 3.196994e+001
      vertex  -2.067236e+001 -6.069952e+000 3.196994e+001
      vertex  -2.398732e+001 -7.043314e+000 3.672523e+001
    endloop
  endfacet
  facet normal -6.901167e-001 -4.435112e-001 5.718714e-001
    outer loop
      vertex  -2.398732e+001 -7.043314e+000 3.672523e+001
      vertex  -1.410903e+001 -1.628269e+001 4.148051e+001
      vertex  -2.067236e+001 -6.069952e+000 4.148051e+001
    endloop
  endfacet
  facet normal -6.901166e-001 -4.435109e-001 5.718716e-001
    outer loop
      vertex  -2.398732e+001 -7.043314e+000 3.672523e+001
      vertex  -1.637152e+001 -1.889374e+001 3.672523e+001
      vertex  -1.410903e+001 -1.628269e+001 4.148051e+001
    endloop
  endfacet
  facet normal 2.698281e-001 1.734080e-001 9.471655e-001
    outer loop
      vertex  -2.067236e+001 -6.069952e+000 4.148051e+001
      vertex  -1.044825e+001 -1.205792e+001 3.966415e+001
      vertex  -1.530863e+001 -4.495019e+000 3.966415e+001
    endloop
  endfacet
  facet normal 2.698281e-001 1.734080e-001 9.471655e-001
    outer loop
      vertex  -2.067236e+001 -6.069952e+000 4.148051e+001
      vertex  -1.410903e+001 -1.628269e+001 4.148051e+001
      vertex  -1.044825e+001 -1.205792e+001 3.966415e+001
    endloop
  endfacet
  facet normal 8.412535e-001 5.406408e-001 0.000000e+000
    outer loop
      vertex  -1.530863e+001 -4.495019e+000 3.966415e+001
      vertex  -1.044825e+001 -1.205792e+001 3.378630e+001
      vertex  -1.530863e+001 -4.495019e+000 3.378630e+001
    endloop
  endfacet
  facet normal 8.412535e-001 5.406408e-001 0.000000e+000
    outer loop
      vertex  -1.530863e+001 -4.495019e+000 3.966415e+001
      vertex  -1.044825e+001 -1.205792e+001 3.966415e+001
      vertex  -1.044825e+001 -1.205792e+001 3.378630e+001
    endloop
  endfacet
  facet normal 2.698281e-001 1.734080e-001 -9.471655e-001
    outer loop
      vertex  -1.530863e+001 -4.495019e+000 3.378630e+001
      vertex  -1.410903e+001 -1.628269e+001 3.196994e+001
      vertex  -2.067236e+001 -6.069952e+000 3.196994e+001
    endloop
  endfacet
  facet normal 2.698281e-001 1.734080e-001 -9.471655e-001
    outer loop
      vertex  -1.530863e+001 -4.495019e+000 3.378630e+001
      vertex  -1.044825e+001 -1.205792e+001 3.378630e+001
      vertex  -1.410903e+001 -1.628269e+001 3.196994e+001
    endloop
  endfacet
  facet normal -6.901168e-001 -4.435110e-001 -5.718714e-001
    outer loop
      vertex  -2.067236e+001 -6.069952e+000 3.196994e+001
      vertex  -1.637152e+001 -1.889374e+001 3.672523e+001
      vertex  -2.398732e+001 -7.043314e+000 3.672523e+001
    endloop
  endfacet
  facet normal -6.901165e-001 -4.435110e-001 -5.718716e-001
    outer loop
      vertex  -2.067236e+001 -6.069952e+000 3.196994e+001
      vertex  -1.410903e+001 -1.628269e+001 3.196994e+001
      vertex  -1.637152e+001 -1.889374e+001 3.672523e+001
    endloop
  endfacet
  facet normal -3.407829e-001 -7.462104e-001 5.718716e-001
    outer loop
      vertex  -1.637152e+001 -1.889374e+001 3.672523e+001
      vertex  -3.066185e+000 -2.132579e+001 4.148051e+001
      vertex  -1.410903e+001 -1.628269e+001 4.148051e+001
    endloop
  endfacet
  facet normal -3.407829e-001 -7.462105e-001 5.718716e-001
    outer loop
      vertex  -1.637152e+001 -1.889374e+001 3.672523e+001
      vertex  -3.557871e+000 -2.474554e+001 3.672523e+001
      vertex  -3.066185e+000 -2.132579e+001 4.148051e+001
    endloop
  endfacet
  facet normal 1.332424e-001 2.917601e-001 9.471655e-001
    outer loop
      vertex  -1.410903e+001 -1.628269e+001 4.148051e+001
      vertex  -2.270621e+000 -1.579252e+001 3.966415e+001
      vertex  -1.044825e+001 -1.205792e+001 3.966415e+001
    endloop
  endfacet
  facet normal 1.332424e-001 2.917601e-001 9.471655e-001
    outer loop
      vertex  -1.410903e+001 -1.628269e+001 4.148051e+001
      vertex  -3.066185e+000 -2.132579e+001 4.148051e+001
      vertex  -2.270621e+000 -1.579252e+001 3.966415e+001
    endloop
  endfacet
  facet normal 4.154150e-001 9.096320e-001 0.000000e+000
    outer loop
      vertex  -1.044825e+001 -1.205792e+001 3.966415e+001
      vertex  -2.270621e+000 -1.579252e+001 3.378630e+001
      vertex  -1.044825e+001 -1.205792e+001 3.378630e+001
    endloop
  endfacet
  facet normal 4.154150e-001 9.096320e-001 0.000000e+000
    outer loop
      vertex  -1.044825e+001 -1.205792e+001 3.966415e+001
      vertex  -2.270621e+000 -1.579252e+001 3.966415e+001
      vertex  -2.270621e+000 -1.579252e+001 3.378630e+001
    endloop
  endfacet
  facet normal 1.332424e-001 2.917601e-001 -9.471655e-001
    outer loop
      vertex  -1.044825e+001 -1.205792e+001 3.378630e+001
      vertex  -3.066185e+000 -2.132579e+001 3.196994e+001
      vertex  -1.410903e+001 -1.628269e+001 3.196994e+001
    endloop
  endfacet
  facet normal 1.332424e-001 2.917602e-001 -9.471655e-001
    outer loop
      vertex  -1.044825e+001 -1.205792e+001 3.378630e+001
      vertex  -2.270621e+000 -1.579252e+001 3.378630e+001
      vertex  -3.066185e+000 -2.132579e+001 3.196994e+001
    endloop
  endfacet
  facet normal -3.407829e-001 -7.462105e-001 -5.718716e-001
    outer loop
      vertex  -1.410903e+001 -1.628269e+001 3.196994e+001
      vertex  -3.557871e+000 -2.474554e+001 3.672523e+001
      vertex  -1.637152e+001 -1.889374e+001 3.672523e+001
    endloop
  endfacet
  facet normal -3.407829e-001 -7.462104e-001 -5.718716e-001
    outer loop
      vertex  -1.410903e+001 -1.628269e+001 3.196994e+001
      vertex  -3.066185e+000 -2.132579e+001 3.196994e+001
      vertex  -3.557871e+000 -2.474554e+001 3.672523e+001
    endloop
  endfacet
  facet normal 1.167470e-001 -8.119933e-001 5.718716e-001
    outer loop
      vertex  -3.557871e+000 -2.474554e+001 3.672523e+001
      vertex  8.950151e+000 -1.959810e+001 4.148051e+001
      vertex  -3.066185e+000 -2.132579e+001 4.148051e+001
    endloop
  endfacet
  facet normal 1.167471e-001 -8.119934e-001 5.718713e-001
    outer loop
      vertex  -3.557871e+000 -2.474554e+001 3.672523e+001
      vertex  1.038538e+001 -2.274080e+001 3.672523e+001
      vertex  8.950151e+000 -1.959810e+001 4.148051e+001
    endloop
  endfacet
  facet normal -4.564679e-002 3.174805e-001 9.471655e-001
    outer loop
      vertex  -3.066185e+000 -2.132579e+001 4.148051e+001
      vertex  6.627911e+000 -1.451310e+001 3.966415e+001
      vertex  -2.270621e+000 -1.579252e+001 3.966415e+001
    endloop
  endfacet
  facet normal -4.564679e-002 3.174805e-001 9.471655e-001
    outer loop
      vertex  -3.066185e+000 -2.132579e+001 4.148051e+001
      vertex  8.950151e+000 -1.959810e+001 4.148051e+001
      vertex  6.627911e+000 -1.451310e+001 3.966415e+001
    endloop
  endfacet
  facet normal -1.423148e-001 9.898214e-001 0.000000e+000
    outer loop
      vertex  -2.270621e+000 -1.579252e+001 3.966415e+001
      vertex  6.627911e+000 -1.451310e+001 3.378630e+001
      vertex  -2.270621e+000 -1.579252e+001 3.378630e+001
    endloop
  endfacet
  facet normal -1.423148e-001 9.898214e-001 0.000000e+000
    outer loop
      vertex  -2.270621e+000 -1.579252e+001 3.966415e+001
      vertex  6.627911e+000 -1.451310e+001 3.966415e+001
      vertex  6.627911e+000 -1.451310e+001 3.378630e+001
    endloop
  endfacet
  facet normal -4.564678e-002 3.174805e-001 -9.471655e-001
    outer loop
      vertex  -2.270621e+000 -1.579252e+001 3.378630e+001
      vertex  8.950151e+000 -1.959810e+001 3.196994e+001
      vertex  -3.066185e+000 -2.132579e+001 3.196994e+001
    endloop
  endfacet
  facet normal -4.564679e-002 3.174805e-001 -9.471655e-001
    outer loop
      vertex  -2.270621e+000 -1.579252e+001 3.378630e+001
      vertex  6.627911e+000 -1.451310e+001 3.378630e+001
      vertex  8.950151e+000 -1.959810e+001 3.196994e+001
    endloop
  endfacet
  facet normal 1.167471e-001 -8.119933e-001 -5.718716e-001
    outer loop
      vertex  -3.066185e+000 -2.132579e+001 3.196994e+001
      vertex  1.038538e+001 -2.274080e+001 3.672523e+001
      vertex  -3.557871e+000 -2.474554e+001 3.672523e+001
    endloop
  endfacet
  facet normal 1.167470e-001 -8.119935e-001 -5.718713e-001
    outer loop
      vertex  -3.066185e+000 -2.132579e+001 3.196994e+001
      vertex  8.950151e+000 -1.959810e+001 3.196994e+001
      vertex  1.038538e+001 -2.274080e+001 3.672523e+001
    endloop
  endfacet
  facet normal 5.372106e-001 -6.199741e-001 5.718713e-001
    outer loop
      vertex  1.038538e+001 -2.274080e+001 3.672523e+001
      vertex  1.812488e+001 -1.164815e+001 4.148051e+001
      vertex  8.950151e+000 -1.959810e+001 4.148051e+001
    endloop
  endfacet
  facet normal 5.372106e-001 -6.199741e-001 5.718715e-001
    outer loop
      vertex  1.038538e+001 -2.274080e+001 3.672523e+001
      vertex  2.103134e+001 -1.351602e+001 3.672523e+001
      vertex  1.812488e+001 -1.164815e+001 4.148051e+001
    endloop
  endfacet
  facet normal -2.100435e-001 2.424031e-001 9.471655e-001
    outer loop
      vertex  8.950151e+000 -1.959810e+001 4.148051e+001
      vertex  1.342213e+001 -8.625878e+000 3.966415e+001
      vertex  6.627911e+000 -1.451310e+001 3.966415e+001
    endloop
  endfacet
  facet normal -2.100435e-001 2.424031e-001 9.471655e-001
    outer loop
      vertex  8.950151e+000 -1.959810e+001 4.148051e+001
      vertex  1.812488e+001 -1.164815e+001 4.148051e+001
      vertex  1.342213e+001 -8.625878e+000 3.966415e+001
    endloop
  endfacet
  facet normal -6.548607e-001 7.557495e-001 0.000000e+000
    outer loop
      vertex  6.627911e+000 -1.451310e+001 3.966415e+001
      vertex  1.342213e+001 -8.625878e+000 3.378630e+001
      vertex  6.627911e+000 -1.451310e+001 3.378630e+001
    endloop
  endfacet
  facet normal -6.548607e-001 7.557495e-001 0.000000e+000
    outer loop
      vertex  6.627911e+000 -1.451310e+001 3.966415e+001
      vertex  1.342213e+001 -8.625878e+000 3.966415e+001
      vertex  1.342213e+001 -8.625878e+000 3.378630e+001
    endloop
  endfacet
  facet normal -2.100435e-001 2.424031e-001 -9.471655e-001
    outer loop
      vertex  6.627911e+000 -1.451310e+001 3.378630e+001
      vertex  1.812488e+001 -1.164815e+001 3.196994e+001
      vertex  8.950151e+000 -1.959810e+001 3.196994e+001
    endloop
  endfacet
  facet normal -2.100435e-001 2.424031e-001 -9.471655e-001
    outer loop
      vertex  6.627911e+000 -1.451310e+001 3.378630e+001
      vertex  1.342213e+001 -8.625878e+000 3.378630e+001
      vertex  1.812488e+001 -1.164815e+001 3.196994e+001
    endloop
  endfacet
  facet normal 5.372106e-001 -6.199741e-001 -5.718713e-001
    outer loop
      vertex  8.950151e+000 -1.959810e+001 3.196994e+001
      vertex  2.103134e+001 -1.351602e+001 3.672523e+001
      vertex  1.038538e+001 -2.274080e+001 3.672523e+001
    endloop
  endfacet
  facet normal 5.372106e-001 -6.199740e-001 -5.718715e-001
    outer loop
      vertex  8.950151e+000 -1.959810e+001 3.196994e+001
      vertex  1.812488e+001 -1.164815e+001 3.196994e+001
      vertex  2.103134e+001 -1.351602e+001 3.672523e+001
    endloop
  endfacet
  facet normal 7.871135e-001 -2.311175e-001 5.718715e-001
    outer loop
      vertex  2.103134e+001 -1.351602e+001 3.672523e+001
      vertex  2.154509e+001 0.000000e+000 4.148051e+001
      vertex  1.812488e+001 -1.164815e+001 4.148051e+001
    endloop
  endfacet
  facet normal 7.871137e-001 -2.311175e-001 5.718713e-001
    outer loop
      vertex  2.103134e+001 -1.351602e+001 3.672523e+001
      vertex  2.500000e+001 0.000000e+000 3.672523e+001
      vertex  2.154509e+001 0.000000e+000 4.148051e+001
    endloop
  endfacet
  facet normal -3.077528e-001 9.036440e-002 9.471655e-001
    outer loop
      vertex  1.812488e+001 -1.164815e+001 4.148051e+001
      vertex  1.595492e+001 0.000000e+000 3.966415e+001
      vertex  1.342213e+001 -8.625878e+000 3.966415e+001
    endloop
  endfacet
  facet normal -3.077528e-001 9.036441e-002 9.471655e-001
    outer loop
      vertex  1.812488e+001 -1.164815e+001 4.148051e+001
      vertex  2.154509e+001 0.000000e+000 4.148051e+001
      vertex  1.595492e+001 0.000000e+000 3.966415e+001
    endloop
  endfacet
  facet normal -9.594930e-001 2.817326e-001 0.000000e+000
    outer loop
      vertex  1.342213e+001 -8.625878e+000 3.966415e+001
      vertex  1.595492e+001 0.000000e+000 3.378630e+001
      vertex  1.342213e+001 -8.625878e+000 3.378630e+001
    endloop
  endfacet
  facet normal -9.594930e-001 2.817326e-001 0.000000e+000
    outer loop
      vertex  1.342213e+001 -8.625878e+000 3.966415e+001
      vertex  1.595492e+001 0.000000e+000 3.966415e+001
      vertex  1.595492e+001 0.000000e+000 3.378630e+001
    endloop
  endfacet
  facet normal -3.077528e-001 9.036443e-002 -9.471655e-001
    outer loop
      vertex  1.342213e+001 -8.625878e+000 3.378630e+001
      vertex  2.154509e+001 0.000000e+000 3.196994e+001
      vertex  1.812488e+001 -1.164815e+001 3.196994e+001
    endloop
  endfacet
  facet normal -3.077527e-001 9.036435e-002 -9.471655e-001
    outer loop
      vertex  1.342213e+001 -8.625878e+000 3.378630e+001
      vertex  1.595492e+001 0.000000e+000 3.378630e+001
      vertex  2.154509e+001 0.000000e+000 3.196994e+001
    endloop
  endfacet
  facet normal 7.871135e-001 -2.311174e-001 -5.718715e-001
    outer loop
      vertex  1.812488e+001 -1.164815e+001 3.196994e+001
      vertex  2.500000e+001 0.000000e+000 3.672523e+001
      vertex  2.103134e+001 -1.351602e+001 3.672523e+001
    endloop
  endfacet
  facet normal 7.871137e-001 -2.311175e-001 -5.718712e-001
    outer loop
      vertex  1.812488e+001 -1.164815e+001 3.196994e+001
      vertex  2.154509e+001 0.000000e+000 3.196994e+001
      vertex  2.500000e+001 0.000000e+000 3.672523e+001
    endloop
  endfacet
  facet normal 2.499218e-001 -3.568221e-001 9.001206e-001
    outer loop
      vertex  1.214675e+001 -3.086415e+001 9.602939e+000
      vertex  1.634315e+001 -3.937066e+001 5.065675e+000
      vertex  2.227810e+001 -3.086415e+001 6.789932e+000
    endloop
  endfacet
  facet normal 7.107652e-001 -5.773503e-001 4.018451e-001
    outer loop
      vertex  2.227810e+001 -3.086415e+001 6.789932e+000
      vertex  1.634315e+001 -3.937066e+001 5.065675e+000
      vertex  2.313309e+001 -3.612147e+001 -2.275770e+000
    endloop
  endfacet
  facet normal 9.955822e-001 0.000000e+000 9.389377e-002
    outer loop
      vertex  2.227810e+001 -3.086415e+001 6.789932e+000
      vertex  2.313309e+001 -3.612147e+001 -2.275770e+000
      vertex  2.313309e+001 -2.560684e+001 -2.275770e+000
    endloop
  endfacet
  facet normal 7.107653e-001 5.773503e-001 4.018450e-001
    outer loop
      vertex  2.227810e+001 -3.086415e+001 6.789932e+000
      vertex  2.313309e+001 -2.560684e+001 -2.275770e+000
      vertex  1.634315e+001 -2.235765e+001 5.065675e+000
    endloop
  endfacet
  facet normal 2.499218e-001 3.568221e-001 9.001206e-001
    outer loop
      vertex  2.227810e+001 -3.086415e+001 6.789932e+000
      vertex  1.634315e+001 -2.235765e+001 5.065675e+000
      vertex  1.214675e+001 -3.086415e+001 9.602939e+000
    endloop
  endfacet
  facet normal -4.018450e-001 5.773503e-001 7.107653e-001
    outer loop
      vertex  1.634315e+001 -2.235765e+001 5.065675e+000
      vertex  6.740217e+000 -2.560684e+001 2.275770e+000
      vertex  1.214675e+001 -3.086415e+001 9.602939e+000
    endloop
  endfacet
  facet normal -8.046590e-001 0.000000e+000 5.937372e-001
    outer loop
      vertex  6.740217e+000 -2.560684e+001 2.275770e+000
      vertex  6.740217e+000 -3.612147e+001 2.275770e+000
      vertex  1.214675e+001 -3.086415e+001 9.602939e+000
    endloop
  endfacet
  facet normal -4.018449e-001 -5.773503e-001 7.107654e-001
    outer loop
      vertex  1.214675e+001 -3.086415e+001 9.602939e+000
      vertex  6.740217e+000 -3.612147e+001 2.275770e+000
      vertex  1.634315e+001 -3.937066e+001 5.065675e+000
    endloop
  endfacet
  facet normal -2.499218e-001 -3.568221e-001 -9.001206e-001
    outer loop
      vertex  1.772656e+001 -3.086415e+001 -9.602939e+000
      vertex  1.353015e+001 -3.937066e+001 -5.065675e+000
      vertex  7.595206e+000 -3.086415e+001 -6.789932e+000
    endloop
  endfacet
  facet normal 4.018448e-001 -5.773503e-001 -7.107653e-001
    outer loop
      vertex  2.313309e+001 -3.612147e+001 -2.275770e+000
      vertex  1.353015e+001 -3.937066e+001 -5.065675e+000
      vertex  1.772656e+001 -3.086415e+001 -9.602939e+000
    endloop
  endfacet
  facet normal 8.046589e-001 0.000000e+000 -5.937373e-001
    outer loop
      vertex  2.313309e+001 -3.612147e+001 -2.275770e+000
      vertex  1.772656e+001 -3.086415e+001 -9.602939e+000
      vertex  2.313309e+001 -2.560684e+001 -2.275770e+000
    endloop
  endfacet
  facet normal 4.018449e-001 5.773503e-001 -7.107653e-001
    outer loop
      vertex  2.313309e+001 -2.560684e+001 -2.275770e+000
      vertex  1.772656e+001 -3.086415e+001 -9.602939e+000
      vertex  1.353015e+001 -2.235765e+001 -5.065675e+000
    endloop
  endfacet
  facet normal -2.499218e-001 3.568221e-001 -9.001206e-001
    outer loop
      vertex  1.353015e+001 -2.235765e+001 -5.065675e+000
      vertex  1.772656e+001 -3.086415e+001 -9.602939e+000
      vertex  7.595206e+000 -3.086415e+001 -6.789932e+000
    endloop
  endfacet
  facet normal -7.107653e-001 5.773503e-001 -4.018450e-001
    outer loop
      vertex  1.353015e+001 -2.235765e+001 -5.065675e+000
      vertex  7.595206e+000 -3.086415e+001 -6.789932e+000
      vertex  6.740217e+000 -2.560684e+001 2.275770e+000
    endloop
  endfacet
  facet normal -9.955822e-001 -0.000000e+000 -9.389370e-002
    outer loop
      vertex  6.740217e+000 -2.560684e+001 2.275770e+000
      vertex  7.595206e+000 -3.086415e+001 -6.789932e+000
      vertex  6.740217e+000 -3.612147e+001 2.275770e+000
    endloop
  endfacet
  facet normal -7.107652e-001 -5.773503e-001 -4.018451e-001
    outer loop
      vertex  6.740217e+000 -3.612147e+001 2.275770e+000
      vertex  7.595206e+000 -3.086415e+001 -6.789932e+000
      vertex  1.353015e+001 -3.937066e+001 -5.065675e+000
    endloop
  endfacet
  facet normal -3.438153e-001 -9.341724e-001 9.546158e-002
    outer loop
      vertex  1.353015e+001 -3.937066e+001 -5.065675e+000
      vertex  1.634315e+001 -3.937066e+001 5.065675e+000
      vertex  6.740217e+000 -3.612147e+001 2.275770e+000
    endloop
  endfacet
  facet normal 3.438153e-001 -9.341724e-001 -9.546155e-002
    outer loop
      vertex  2.313309e+001 -3.612147e+001 -2.275770e+000
      vertex  1.634315e+001 -3.937066e+001 5.065675e+000
      vertex  1.353015e+001 -3.937066e+001 -5.065675e+000
    endloop
  endfacet
  facet normal 3.438155e-001 9.341723e-001 -9.546161e-002
    outer loop
      vertex  1.634315e+001 -2.235765e+001 5.065675e+000
      vertex  2.313309e+001 -2.560684e+001 -2.275770e+000
      vertex  1.353015e+001 -2.235765e+001 -5.065675e+000
    endloop
  endfacet
  facet normal -3.438155e-001 9.341723e-001 9.546163e-002
    outer loop
      vertex  1.634315e+001 -2.235765e+001 5.065675e+000
      vertex  1.353015e+001 -2.235765e+001 -5.065675e+000
      vertex  6.740217e+000 -2.560684e+001 2.275770e+000
    endloop
  endfacet
  facet normal 0.000000e+000 -8.601636e-002 9.962937e-001
    outer loop
      vertex  2.249382e+001 2.365047e+001 8.178179e+000
      vertex  2.775113e+001 1.457829e+001 7.394920e+000
      vertex  3.300844e+001 2.365047e+001 8.178179e+000
    endloop
  endfacet
  facet normal 5.773502e-001 -3.962106e-001 7.139215e-001
    outer loop
      vertex  3.300844e+001 2.365047e+001 8.178179e+000
      vertex  2.775113e+001 1.457829e+001 7.394920e+000
      vertex  3.625764e+001 1.625555e+001 1.446525e+000
    endloop
  endfacet
  facet normal 9.341723e-001 9.817805e-002 3.430499e-001
    outer loop
      vertex  3.300844e+001 2.365047e+001 8.178179e+000
      vertex  3.625764e+001 1.625555e+001 1.446525e+000
      vertex  3.625764e+001 2.636433e+001 -1.446525e+000
    endloop
  endfacet
  facet normal 5.773503e-001 7.139214e-001 3.962108e-001
    outer loop
      vertex  3.300844e+001 2.365047e+001 8.178179e+000
      vertex  3.625764e+001 2.636433e+001 -1.446525e+000
      vertex  2.775113e+001 3.093464e+001 2.713866e+000
    endloop
  endfacet
  facet normal 0.000000e+000 6.000829e-001 7.999378e-001
    outer loop
      vertex  3.300844e+001 2.365047e+001 8.178179e+000
      vertex  2.775113e+001 3.093464e+001 2.713866e+000
      vertex  2.249382e+001 2.365047e+001 8.178179e+000
    endloop
  endfacet
  facet normal -5.773503e-001 7.139213e-001 3.962107e-001
    outer loop
      vertex  2.775113e+001 3.093464e+001 2.713866e+000
      vertex  1.924462e+001 2.636433e+001 -1.446525e+000
      vertex  2.249382e+001 2.365047e+001 8.178179e+000
    endloop
  endfacet
  facet normal -9.341723e-001 9.817797e-002 3.430497e-001
    outer loop
      vertex  1.924462e+001 2.636433e+001 -1.446525e+000
      vertex  1.924462e+001 1.625555e+001 1.446525e+000
      vertex  2.249382e+001 2.365047e+001 8.178179e+000
    endloop
  endfacet
  facet normal -5.773503e-001 -3.962107e-001 7.139214e-001
    outer loop
      vertex  2.249382e+001 2.365047e+001 8.178179e+000
      vertex  1.924462e+001 1.625555e+001 1.446525e+000
      vertex  2.775113e+001 1.457829e+001 7.394920e+000
    endloop
  endfacet
  facet normal -0.000000e+000 -6.000829e-001 -7.999378e-001
    outer loop
      vertex  3.300844e+001 1.896941e+001 -8.178179e+000
      vertex  2.775113e+001 1.168524e+001 -2.713866e+000
      vertex  2.249382e+001 1.896941e+001 -8.178179e+000
    endloop
  endfacet
  facet normal 5.773501e-001 -7.139214e-001 -3.962109e-001
    outer loop
      vertex  3.625764e+001 1.625555e+001 1.446525e+000
      vertex  2.775113e+001 1.168524e+001 -2.713866e+000
      vertex  3.300844e+001 1.896941e+001 -8.178179e+000
    endloop
  endfacet
  facet normal 9.341723e-001 -9.817803e-002 -3.430499e-001
    outer loop
      vertex  3.625764e+001 1.625555e+001 1.446525e+000
      vertex  3.300844e+001 1.896941e+001 -8.178179e+000
      vertex  3.625764e+001 2.636433e+001 -1.446525e+000
    endloop
  endfacet
  facet normal 5.773503e-001 3.962107e-001 -7.139214e-001
    outer loop
      vertex  3.625764e+001 2.636433e+001 -1.446525e+000
      vertex  3.300844e+001 1.896941e+001 -8.178179e+000
      vertex  2.775113e+001 2.804159e+001 -7.394920e+000
    endloop
  endfacet
  facet normal 0.000000e+000 8.601636e-002 -9.962937e-001
    outer loop
      vertex  2.775113e+001 2.804159e+001 -7.394920e+000
      vertex  3.300844e+001 1.896941e+001 -8.178179e+000
      vertex  2.249382e+001 1.896941e+001 -8.178179e+000
    endloop
  endfacet
  facet normal -5.773503e-001 3.962108e-001 -7.139213e-001
    outer loop
      vertex  2.775113e+001 2.804159e+001 -7.394920e+000
      vertex  2.249382e+001 1.896941e+001 -8.178179e+000
      vertex  1.924462e+001 2.636433e+001 -1.446525e+000
    endloop
  endfacet
  facet normal -9.341723e-001 -9.817798e-002 -3.430497e-001
    outer loop
      vertex  1.924462e+001 2.636433e+001 -1.446525e+000
      vertex  2.249382e+001 1.896941e+001 -8.178179e+000
      vertex  1.924462e+001 1.625555e+001 1.446525e+000
    endloop
  endfacet
  facet normal -5.773502e-001 -7.139213e-001 -3.962108e-001
    outer loop
      vertex  1.924462e+001 1.625555e+001 1.446525e+000
      vertex  2.249382e+001 1.896941e+001 -8.178179e+000
      vertex  2.775113e+001 1.168524e+001 -2.713866e+000
    endloop
  endfacet
  facet normal -3.568220e-001 -8.981158e-001 2.570333e-001
    outer loop
      vertex  2.775113e+001 1.168524e+001 -2.713866e+000
      vertex  2.775113e+001 1.457829e+001 7.394920e+000
      vertex  1.924462e+001 1.625555e+001 1.446525e+000
    endloop
  endfacet
  facet normal 3.568220e-001 -8.981158e-001 2.570333e-001
    outer loop
      vertex  3.625764e+001 1.625555e+001 1.446525e+000
      vertex  2.775113e+001 1.457829e+001 7.394920e+000
      vertex  2.775113e+001 1.168524e+001 -2.713866e+000
    endloop
  endfacet
  facet normal 3.568221e-001 8.981158e-001 -2.570333e-001
    outer loop
      vertex  2.775113e+001 3.093464e+001 2.713866e+000
      vertex  3.625764e+001 2.636433e+001 -1.446525e+000
      vertex  2.775113e+001 2.804159e+001 -7.394920e+000
    endloop
  endfacet
  facet normal -3.568221e-001 8.981156e-001 -2.570333e-001
    outer loop
      vertex  2.775113e+001 3.093464e+001 2.713866e+000
      vertex  2.775113e+001 2.804159e+001 -7.394920e+000
      vertex  1.924462e+001 2.636433e+001 -1.446525e+000
    endloop
  endfacet
  facet normal -3.129528e-001 -3.568221e-001 8.801923e-001
    outer loop
      vertex  -2.020538e+001 3.637648e+001 6.253742e+000
      vertex  -1.416336e+001 2.786997e+001 4.953524e+000
      vertex  -1.029834e+001 3.637648e+001 9.776197e+000
    endloop
  endfacet
  facet normal 3.505733e-001 -5.773503e-001 7.374043e-001
    outer loop
      vertex  -1.029834e+001 3.637648e+001 9.776197e+000
      vertex  -1.416336e+001 2.786997e+001 4.953524e+000
      vertex  -4.387164e+000 3.111917e+001 2.849727e+000
    endloop
  endfacet
  facet normal 7.606550e-001 0.000000e+000 6.491564e-001
    outer loop
      vertex  -1.029834e+001 3.637648e+001 9.776197e+000
      vertex  -4.387164e+000 3.111917e+001 2.849727e+000
      vertex  -4.387164e+000 4.163379e+001 2.849727e+000
    endloop
  endfacet
  facet normal 3.505732e-001 5.773503e-001 7.374043e-001
    outer loop
      vertex  -1.029834e+001 3.637648e+001 9.776197e+000
      vertex  -4.387164e+000 4.163379e+001 2.849727e+000
      vertex  -1.416336e+001 4.488298e+001 4.953524e+000
    endloop
  endfacet
  facet normal -3.129528e-001 3.568221e-001 8.801923e-001
    outer loop
      vertex  -1.029834e+001 3.637648e+001 9.776197e+000
      vertex  -1.416336e+001 4.488298e+001 4.953524e+000
      vertex  -2.020538e+001 3.637648e+001 6.253742e+000
    endloop
  endfacet
  facet normal -7.374043e-001 5.773503e-001 3.505734e-001
    outer loop
      vertex  -1.416336e+001 4.488298e+001 4.953524e+000
      vertex  -2.041710e+001 4.163379e+001 -2.849727e+000
      vertex  -2.020538e+001 3.637648e+001 6.253742e+000
    endloop
  endfacet
  facet normal -9.997296e-001 0.000000e+000 2.325073e-002
    outer loop
      vertex  -2.041710e+001 4.163379e+001 -2.849727e+000
      vertex  -2.041710e+001 3.111917e+001 -2.849727e+000
      vertex  -2.020538e+001 3.637648e+001 6.253742e+000
    endloop
  endfacet
  facet normal -7.374043e-001 -5.773503e-001 3.505733e-001
    outer loop
      vertex  -2.020538e+001 3.637648e+001 6.253742e+000
      vertex  -2.041710e+001 3.111917e+001 -2.849727e+000
      vertex  -1.416336e+001 2.786997e+001 4.953524e+000
    endloop
  endfacet
  facet normal 3.129528e-001 -3.568221e-001 -8.801923e-001
    outer loop
      vertex  -4.598884e+000 3.637648e+001 -6.253742e+000
      vertex  -1.064091e+001 2.786997e+001 -4.953524e+000
      vertex  -1.450593e+001 3.637648e+001 -9.776197e+000
    endloop
  endfacet
  facet normal 7.374043e-001 -5.773503e-001 -3.505733e-001
    outer loop
      vertex  -4.387164e+000 3.111917e+001 2.849727e+000
      vertex  -1.064091e+001 2.786997e+001 -4.953524e+000
      vertex  -4.598884e+000 3.637648e+001 -6.253742e+000
    endloop
  endfacet
  facet normal 9.997296e-001 0.000000e+000 -2.325073e-002
    outer loop
      vertex  -4.387164e+000 3.111917e+001 2.849727e+000
      vertex  -4.598884e+000 3.637648e+001 -6.253742e+000
      vertex  -4.387164e+000 4.163379e+001 2.849727e+000
    endloop
  endfacet
  facet normal 7.374043e-001 5.773503e-001 -3.505734e-001
    outer loop
      vertex  -4.387164e+000 4.163379e+001 2.849727e+000
      vertex  -4.598884e+000 3.637648e+001 -6.253742e+000
      vertex  -1.064091e+001 4.488298e+001 -4.953524e+000
    endloop
  endfacet
  facet normal 3.129528e-001 3.568221e-001 -8.801923e-001
    outer loop
      vertex  -1.064091e+001 4.488298e+001 -4.953524e+000
      vertex  -4.598884e+000 3.637648e+001 -6.253742e+000
      vertex  -1.450593e+001 3.637648e+001 -9.776197e+000
    endloop
  endfacet
  facet normal -3.505732e-001 5.773503e-001 -7.374043e-001
    outer loop
      vertex  -1.064091e+001 4.488298e+001 -4.953524e+000
      vertex  -1.450593e+001 3.637648e+001 -9.776197e+000
      vertex  -2.041710e+001 4.163379e+001 -2.849727e+000
    endloop
  endfacet
  facet normal -7.606550e-001 -0.000000e+000 -6.491563e-001
    outer loop
      vertex  -2.041710e+001 4.163379e+001 -2.849727e+000
      vertex  -1.450593e+001 3.637648e+001 -9.776197e+000
      vertex  -2.041710e+001 3.111917e+001 -2.849727e+000
    endloop
  endfacet
  facet normal -3.505733e-001 -5.773503e-001 -7.374043e-001
    outer loop
      vertex  -2.041710e+001 3.111917e+001 -2.849727e+000
      vertex  -1.450593e+001 3.637648e+001 -9.776197e+000
      vertex  -1.064091e+001 2.786997e+001 -4.953524e+000
    endloop
  endfacet
  facet normal -3.362035e-001 -9.341723e-001 -1.195374e-001
    outer loop
      vertex  -1.064091e+001 2.786997e+001 -4.953524e+000
      vertex  -1.416336e+001 2.786997e+001 4.953524e+000
      vertex  -2.041710e+001 3.111917e+001 -2.849727e+000
    endloop
  endfacet
  facet normal 3.362035e-001 -9.341723e-001 1.195374e-001
    outer loop
      vertex  -4.387164e+000 3.111917e+001 2.849727e+000
      vertex  -1.416336e+001 2.786997e+001 4.953524e+000
      vertex  -1.064091e+001 2.786997e+001 -4.953524e+000
    endloop
  endfacet
  facet normal 3.362034e-001 9.341724e-001 1.195373e-001
    outer loop
      vertex  -1.416336e+001 4.488298e+001 4.953524e+000
      vertex  -4.387164e+000 4.163379e+001 2.849727e+000
      vertex  -1.064091e+001 4.488298e+001 -4.953524e+000
    endloop
  endfacet
  facet normal -3.362034e-001 9.341724e-001 -1.195373e-001
    outer loop
      vertex  -1.416336e+001 4.488298e+001 4.953524e+000
      vertex  -1.064091e+001 4.488298e+001 -4.953524e+000
      vertex  -2.041710e+001 4.163379e+001 -2.849727e+000
    endloop
  endfacet
  facet normal -0.000000e+000 1.955778e-001 9.806882e-001
    outer loop
      vertex  -2.046302e+001 -3.154351e+001 7.199443e+000
      vertex  -1.520570e+001 -4.047359e+001 8.980361e+000
      vertex  -9.948394e+000 -3.154351e+001 7.199443e+000
    endloop
  endfacet
  facet normal 5.773503e-001 -1.811210e-001 7.961544e-001
    outer loop
      vertex  -9.948394e+000 -3.154351e+001 7.199443e+000
      vertex  -1.520570e+001 -4.047359e+001 8.980361e+000
      vertex  -6.699197e+000 -4.052387e+001 2.800225e+000
    endloop
  endfacet
  facet normal 9.341723e-001 1.900558e-001 3.019947e-001
    outer loop
      vertex  -9.948394e+000 -3.154351e+001 7.199443e+000
      vertex  -6.699197e+000 -4.052387e+001 2.800225e+000
      vertex  -6.699197e+000 -3.162487e+001 -2.800225e+000
    endloop
  endfacet
  facet normal 5.773502e-001 7.961544e-001 1.811211e-001
    outer loop
      vertex  -9.948394e+000 -3.154351e+001 7.199443e+000
      vertex  -6.699197e+000 -3.162487e+001 -2.800225e+000
      vertex  -1.520570e+001 -2.607470e+001 -8.135941e-002
    endloop
  endfacet
  facet normal 0.000000e+000 7.995672e-001 6.005766e-001
    outer loop
      vertex  -9.948394e+000 -3.154351e+001 7.199443e+000
      vertex  -1.520570e+001 -2.607470e+001 -8.135941e-002
      vertex  -2.046302e+001 -3.154351e+001 7.199443e+000
    endloop
  endfacet
  facet normal -5.773501e-001 7.961544e-001 1.811211e-001
    outer loop
      vertex  -1.520570e+001 -2.607470e+001 -8.135941e-002
      vertex  -2.371221e+001 -3.162487e+001 -2.800225e+000
      vertex  -2.046302e+001 -3.154351e+001 7.199443e+000
    endloop
  endfacet
  facet normal -9.341723e-001 1.900558e-001 3.019947e-001
    outer loop
      vertex  -2.371221e+001 -3.162487e+001 -2.800225e+000
      vertex  -2.371221e+001 -4.052387e+001 2.800225e+000
      vertex  -2.046302e+001 -3.154351e+001 7.199443e+000
    endloop
  endfacet
  facet normal -5.773503e-001 -1.811210e-001 7.961544e-001
    outer loop
      vertex  -2.046302e+001 -3.154351e+001 7.199443e+000
      vertex  -2.371221e+001 -4.052387e+001 2.800225e+000
      vertex  -1.520570e+001 -4.047359e+001 8.980361e+000
    endloop
  endfacet
  facet normal -0.000000e+000 -7.995673e-001 -6.005765e-001
    outer loop
      vertex  -9.948394e+000 -4.060523e+001 -7.199443e+000
      vertex  -1.520570e+001 -4.607404e+001 8.135941e-002
      vertex  -2.046302e+001 -4.060523e+001 -7.199443e+000
    endloop
  endfacet
  facet normal 5.773502e-001 -7.961545e-001 -1.811209e-001
    outer loop
      vertex  -6.699197e+000 -4.052387e+001 2.800225e+000
      vertex  -1.520570e+001 -4.607404e+001 8.135941e-002
      vertex  -9.948394e+000 -4.060523e+001 -7.199443e+000
    endloop
  endfacet
  facet normal 9.341723e-001 -1.900557e-001 -3.019947e-001
    outer loop
      vertex  -6.699197e+000 -4.052387e+001 2.800225e+000
      vertex  -9.948394e+000 -4.060523e+001 -7.199443e+000
      vertex  -6.699197e+000 -3.162487e+001 -2.800225e+000
    endloop
  endfacet
  facet normal 5.773503e-001 1.811209e-001 -7.961543e-001
    outer loop
      vertex  -6.699197e+000 -3.162487e+001 -2.800225e+000
      vertex  -9.948394e+000 -4.060523e+001 -7.199443e+000
      vertex  -1.520570e+001 -3.167515e+001 -8.980361e+000
    endloop
  endfacet
  facet normal 0.000000e+000 -1.955778e-001 -9.806882e-001
    outer loop
      vertex  -1.520570e+001 -3.167515e+001 -8.980361e+000
      vertex  -9.948394e+000 -4.060523e+001 -7.199443e+000
      vertex  -2.046302e+001 -4.060523e+001 -7.199443e+000
    endloop
  endfacet
  facet normal -5.773503e-001 1.811210e-001 -7.961544e-001
    outer loop
      vertex  -1.520570e+001 -3.167515e+001 -8.980361e+000
      vertex  -2.046302e+001 -4.060523e+001 -7.199443e+000
      vertex  -2.371221e+001 -3.162487e+001 -2.800225e+000
    endloop
  endfacet
  facet normal -9.341723e-001 -1.900557e-001 -3.019947e-001
    outer loop
      vertex  -2.371221e+001 -3.162487e+001 -2.800225e+000
      vertex  -2.046302e+001 -4.060523e+001 -7.199443e+000
      vertex  -2.371221e+001 -4.052387e+001 2.800225e+000
    endloop
  endfacet
  facet normal -5.773502e-001 -7.961546e-001 -1.811209e-001
    outer loop
      vertex  -2.371221e+001 -4.052387e+001 2.800225e+000
      vertex  -2.046302e+001 -4.060523e+001 -7.199443e+000
      vertex  -1.520570e+001 -4.607404e+001 8.135941e-002
    endloop
  endfacet
  facet normal -3.568220e-001 -7.906325e-001 4.975723e-001
    outer loop
      vertex  -1.520570e+001 -4.607404e+001 8.135941e-002
      vertex  -1.520570e+001 -4.047359e+001 8.980361e+000
      vertex  -2.371221e+001 -4.052387e+001 2.800225e+000
    endloop
  endfacet
  facet normal 3.568221e-001 -7.906325e-001 4.975723e-001
    outer loop
      vertex  -6.699197e+000 -4.052387e+001 2.800225e+000
      vertex  -1.520570e+001 -4.047359e+001 8.980361e+000
      vertex  -1.520570e+001 -4.607404e+001 8.135941e-002
    endloop
  endfacet
  facet normal 3.568220e-001 7.906324e-001 -4.975725e-001
    outer loop
      vertex  -1.520570e+001 -2.607470e+001 -8.135941e-002
      vertex  -6.699197e+000 -3.162487e+001 -2.800225e+000
      vertex  -1.520570e+001 -3.167515e+001 -8.980361e+000
    endloop
  endfacet
  facet normal -3.568220e-001 7.906324e-001 -4.975725e-001
    outer loop
      vertex  -1.520570e+001 -2.607470e+001 -8.135941e-002
      vertex  -1.520570e+001 -3.167515e+001 -8.980361e+000
      vertex  -2.371221e+001 -3.162487e+001 -2.800225e+000
    endloop
  endfacet
  facet normal -0.000000e+000 4.532292e-003 9.999897e-001
    outer loop
      vertex  -3.284825e+001 3.071295e+000 7.932706e+000
      vertex  -2.759094e+001 -6.034542e+000 7.973977e+000
      vertex  -2.233363e+001 3.071295e+000 7.932706e+000
    endloop
  endfacet
  facet normal 5.773503e-001 -3.299518e-001 7.468591e-001
    outer loop
      vertex  -2.233363e+001 3.071295e+000 7.932706e+000
      vertex  -2.759094e+001 -6.034542e+000 7.973977e+000
      vertex  -1.908443e+001 -4.902682e+000 1.898165e+000
    endloop
  endfacet
  facet normal 9.341723e-001 1.288315e-001 3.327528e-001
    outer loop
      vertex  -2.233363e+001 3.071295e+000 7.932706e+000
      vertex  -1.908443e+001 -4.902682e+000 1.898165e+000
      vertex  -1.908443e+001 4.902682e+000 -1.898165e+000
    endloop
  endfacet
  facet normal 5.773503e-001 7.468591e-001 3.299517e-001
    outer loop
      vertex  -2.233363e+001 3.071295e+000 7.932706e+000
      vertex  -1.908443e+001 4.902682e+000 -1.898165e+000
      vertex  -2.759094e+001 9.830871e+000 1.831387e+000
    endloop
  endfacet
  facet normal 0.000000e+000 6.700380e-001 7.423269e-001
    outer loop
      vertex  -2.233363e+001 3.071295e+000 7.932706e+000
      vertex  -2.759094e+001 9.830871e+000 1.831387e+000
      vertex  -3.284825e+001 3.071295e+000 7.932706e+000
    endloop
  endfacet
  facet normal -5.773502e-001 7.468592e-001 3.299518e-001
    outer loop
      vertex  -2.759094e+001 9.830871e+000 1.831387e+000
      vertex  -3.609745e+001 4.902682e+000 -1.898165e+000
      vertex  -3.284825e+001 3.071295e+000 7.932706e+000
    endloop
  endfacet
  facet normal -9.341723e-001 1.288315e-001 3.327530e-001
    outer loop
      vertex  -3.609745e+001 4.902682e+000 -1.898165e+000
      vertex  -3.609745e+001 -4.902682e+000 1.898165e+000
      vertex  -3.284825e+001 3.071295e+000 7.932706e+000
    endloop
  endfacet
  facet normal -5.773502e-001 -3.299517e-001 7.468592e-001
    outer loop
      vertex  -3.284825e+001 3.071295e+000 7.932706e+000
      vertex  -3.609745e+001 -4.902682e+000 1.898165e+000
      vertex  -2.759094e+001 -6.034542e+000 7.973977e+000
    endloop
  endfacet
  facet normal -0.000000e+000 -6.700380e-001 -7.423269e-001
    outer loop
      vertex  -2.233363e+001 -3.071295e+000 -7.932706e+000
      vertex  -2.759094e+001 -9.830871e+000 -1.831387e+000
      vertex  -3.284825e+001 -3.071295e+000 -7.932706e+000
    endloop
  endfacet
  facet normal 5.773503e-001 -7.468591e-001 -3.299517e-001
    outer loop
      vertex  -1.908443e+001 -4.902682e+000 1.898165e+000
      vertex  -2.759094e+001 -9.830871e+000 -1.831387e+000
      vertex  -2.233363e+001 -3.071295e+000 -7.932706e+000
    endloop
  endfacet
  facet normal 9.341723e-001 -1.288315e-001 -3.327528e-001
    outer loop
      vertex  -1.908443e+001 -4.902682e+000 1.898165e+000
      vertex  -2.233363e+001 -3.071295e+000 -7.932706e+000
      vertex  -1.908443e+001 4.902682e+000 -1.898165e+000
    endloop
  endfacet
  facet normal 5.773503e-001 3.299517e-001 -7.468591e-001
    outer loop
      vertex  -1.908443e+001 4.902682e+000 -1.898165e+000
      vertex  -2.233363e+001 -3.071295e+000 -7.932706e+000
      vertex  -2.759094e+001 6.034542e+000 -7.973977e+000
    endloop
  endfacet
  facet normal 0.000000e+000 -4.532292e-003 -9.999897e-001
    outer loop
      vertex  -2.759094e+001 6.034542e+000 -7.973977e+000
      vertex  -2.233363e+001 -3.071295e+000 -7.932706e+000
      vertex  -3.284825e+001 -3.071295e+000 -7.932706e+000
    endloop
  endfacet
  facet normal -5.773502e-001 3.299517e-001 -7.468592e-001
    outer loop
      vertex  -2.759094e+001 6.034542e+000 -7.973977e+000
      vertex  -3.284825e+001 -3.071295e+000 -7.932706e+000
      vertex  -3.609745e+001 4.902682e+000 -1.898165e+000
    endloop
  endfacet
  facet normal -9.341723e-001 -1.288315e-001 -3.327530e-001
    outer loop
      vertex  -3.609745e+001 4.902682e+000 -1.898165e+000
      vertex  -3.284825e+001 -3.071295e+000 -7.932706e+000
      vertex  -3.609745e+001 -4.902682e+000 1.898165e+000
    endloop
  endfacet
  facet normal -5.773502e-001 -7.468591e-001 -3.299518e-001
    outer loop
      vertex  -3.609745e+001 -4.902682e+000 1.898165e+000
      vertex  -3.284825e+001 -3.071295e+000 -7.932706e+000
      vertex  -2.759094e+001 -9.830871e+000 -1.831387e+000
    endloop
  endfacet
  facet normal -3.568221e-001 -8.711583e-001 3.372851e-001
    outer loop
      vertex  -2.759094e+001 -9.830871e+000 -1.831387e+000
      vertex  -2.759094e+001 -6.034542e+000 7.973977e+000
      vertex  -3.609745e+001 -4.902682e+000 1.898165e+000
    endloop
  endfacet
  facet normal 3.568221e-001 -8.711582e-001 3.372851e-001
    outer loop
      vertex  -1.908443e+001 -4.902682e+000 1.898165e+000
      vertex  -2.759094e+001 -6.034542e+000 7.973977e+000
      vertex  -2.759094e+001 -9.830871e+000 -1.831387e+000
    endloop
  endfacet
  facet normal 3.568222e-001 8.711582e-001 -3.372851e-001
    outer loop
      vertex  -2.759094e+001 9.830871e+000 1.831387e+000
      vertex  -1.908443e+001 4.902682e+000 -1.898165e+000
      vertex  -2.759094e+001 6.034542e+000 -7.973977e+000
    endloop
  endfacet
  facet normal -3.568221e-001 8.711583e-001 -3.372851e-001
    outer loop
      vertex  -2.759094e+001 9.830871e+000 1.831387e+000
      vertex  -2.759094e+001 6.034542e+000 -7.973977e+000
      vertex  -3.609745e+001 4.902682e+000 -1.898165e+000
    endloop
  endfacet
  facet normal 8.279904e-001 -3.568221e-001 4.325621e-001
    outer loop
      vertex  5.105260e+000 0.000000e+000 8.598623e+000
      vertex  4.659743e+000 -8.506508e+000 2.434362e+000
      vertex  9.973984e+000 0.000000e+000 -7.208627e-001
    endloop
  endfacet
  facet normal 7.790643e-001 -5.773503e-001 -2.443881e-001
    outer loop
      vertex  9.973984e+000 0.000000e+000 -7.208627e-001
      vertex  4.659743e+000 -8.506508e+000 2.434362e+000
      vertex  3.938880e+000 -5.257311e+000 -7.539622e+000
    endloop
  endfacet
  facet normal 7.488263e-001 0.000000e+000 -6.627663e-001
    outer loop
      vertex  9.973984e+000 0.000000e+000 -7.208627e-001
      vertex  3.938880e+000 -5.257311e+000 -7.539622e+000
      vertex  3.938880e+000 5.257311e+000 -7.539622e+000
    endloop
  endfacet
  facet normal 7.790643e-001 5.773503e-001 -2.443881e-001
    outer loop
      vertex  9.973984e+000 0.000000e+000 -7.208627e-001
      vertex  3.938880e+000 5.257311e+000 -7.539622e+000
      vertex  4.659743e+000 8.506508e+000 2.434362e+000
    endloop
  endfacet
  facet normal 8.279904e-001 3.568221e-001 4.325621e-001
    outer loop
      vertex  9.973984e+000 0.000000e+000 -7.208627e-001
      vertex  4.659743e+000 8.506508e+000 2.434362e+000
      vertex  5.105260e+000 0.000000e+000 8.598623e+000
    endloop
  endfacet
  facet normal 2.443881e-001 5.773503e-001 7.790642e-001
    outer loop
      vertex  4.659743e+000 8.506508e+000 2.434362e+000
      vertex  -3.938880e+000 5.257311e+000 7.539622e+000
      vertex  5.105260e+000 0.000000e+000 8.598623e+000
    endloop
  endfacet
  facet normal -1.162980e-001 0.000000e+000 9.932144e-001
    outer loop
      vertex  -3.938880e+000 5.257311e+000 7.539622e+000
      vertex  -3.938880e+000 -5.257311e+000 7.539622e+000
      vertex  5.105260e+000 0.000000e+000 8.598623e+000
    endloop
  endfacet
  facet normal 2.443882e-001 -5.773504e-001 7.790642e-001
    outer loop
      vertex  5.105260e+000 0.000000e+000 8.598623e+000
      vertex  -3.938880e+000 -5.257311e+000 7.539622e+000
      vertex  4.659743e+000 -8.506508e+000 2.434362e+000
    endloop
  endfacet
  facet normal -8.279904e-001 -3.568221e-001 -4.325621e-001
    outer loop
      vertex  -5.105260e+000 0.000000e+000 -8.598623e+000
      vertex  -4.659743e+000 -8.506508e+000 -2.434362e+000
      vertex  -9.973984e+000 0.000000e+000 7.208627e-001
    endloop
  endfacet
  facet normal -2.443881e-001 -5.773503e-001 -7.790643e-001
    outer loop
      vertex  3.938880e+000 -5.257311e+000 -7.539622e+000
      vertex  -4.659743e+000 -8.506508e+000 -2.434362e+000
      vertex  -5.105260e+000 0.000000e+000 -8.598623e+000
    endloop
  endfacet
  facet normal 1.162980e-001 0.000000e+000 -9.932144e-001
    outer loop
      vertex  3.938880e+000 -5.257311e+000 -7.539622e+000
      vertex  -5.105260e+000 0.000000e+000 -8.598623e+000
      vertex  3.938880e+000 5.257311e+000 -7.539622e+000
    endloop
  endfacet
  facet normal -2.443881e-001 5.773503e-001 -7.790643e-001
    outer loop
      vertex  3.938880e+000 5.257311e+000 -7.539622e+000
      vertex  -5.105260e+000 0.000000e+000 -8.598623e+000
      vertex  -4.659743e+000 8.506508e+000 -2.434362e+000
    endloop
  endfacet
  facet normal -8.279904e-001 3.568221e-001 -4.325621e-001
    outer loop
      vertex  -4.659743e+000 8.506508e+000 -2.434362e+000
      vertex  -5.105260e+000 0.000000e+000 -8.598623e+000
      vertex  -9.973984e+000 0.000000e+000 7.208627e-001
    endloop
  endfacet
  facet normal -7.790643e-001 5.773503e-001 2.443881e-001
    outer loop
      vertex  -4.659743e+000 8.506508e+000 -2.434362e+000
      vertex  -9.973984e+000 0.000000e+000 7.208627e-001
      vertex  -3.938880e+000 5.257311e+000 7.539622e+000
    endloop
  endfacet
  facet normal -7.488263e-001 0.000000e+000 6.627663e-001
    outer loop
      vertex  -3.938880e+000 5.257311e+000 7.539622e+000
      vertex  -9.973984e+000 0.000000e+000 7.208627e-001
      vertex  -3.938880e+000 -5.257311e+000 7.539622e+000
    endloop
  endfacet
  facet normal -7.790643e-001 -5.773503e-001 2.443881e-001
    outer loop
      vertex  -3.938880e+000 -5.257311e+000 7.539622e+000
      vertex  -9.973984e+000 0.000000e+000 7.208627e-001
      vertex  -4.659743e+000 -8.506508e+000 -2.434362e+000
    endloop
  endfacet
  facet normal -1.652240e-001 -9.341723e-001 3.162641e-001
    outer loop
      vertex  -4.659743e+000 -8.506508e+000 -2.434362e+000
      vertex  4.659743e+000 -8.506508e+000 2.434362e+000
      vertex  -3.938880e+000 -5.257311e+000 7.539622e+000
    endloop
  endfacet
  facet normal 1.652240e-001 -9.341723e-001 -3.162642e-001
    outer loop
      vertex  3.938880e+000 -5.257311e+000 -7.539622e+000
      vertex  4.659743e+000 -8.506508e+000 2.434362e+000
      vertex  -4.659743e+000 -8.506508e+000 -2.434362e+000
    endloop
  endfacet
  facet normal 1.652240e-001 9.341723e-001 -3.162641e-001
    outer loop
      vertex  4.659743e+000 8.506508e+000 2.434362e+000
      vertex  3.938880e+000 5.257311e+000 -7.539622e+000
      vertex  -4.659743e+000 8.506508e+000 -2.434362e+000
    endloop
  endfacet
  facet normal -1.652240e-001 9.341723e-001 3.162641e-001
    outer loop
      vertex  4.659743e+000 8.506508e+000 2.434362e+000
      vertex  -4.659743e+000 8.506508e+000 -2.434362e+000
      vertex  -3.938880e+000 5.257311e+000 7.539622e+000
    endloop
  endfacet
endsolid vcg
